<?xml version="1.0" encoding="UTF-8"?>
<svg width="22px" height="22px" viewBox="0 0 22 22" version="1.1" xmlns="http://www.w3.org/2000/svg" xmlns:xlink="http://www.w3.org/1999/xlink">
    <!-- Generator: Sketch 53 (72520) - https://sketchapp.com -->
    <title>Group 21</title>
    <desc>Created with Sketch.</desc>
    <g id="Page-1" stroke="none" stroke-width="1" fill="none" fill-rule="evenodd">
        <g id="Step-1" transform="translate(-63.000000, -378.000000)">
            <g id="Group-21" transform="translate(63.000000, 378.000000)">
                <circle id="Oval" fill="#00AFE6" cx="11" cy="11" r="11"></circle>
                <path d="M11.572,12.47 L9.61,12.47 C9.61,11.8339968 9.71799892,11.2790024 9.934,10.805 C10.1500011,10.3309976 10.5879967,9.84800246 11.248,9.356 C11.6200019,9.07999862 11.8659994,8.86400078 11.986,8.708 C12.1060006,8.55199922 12.166,8.33600138 12.166,8.06 C12.166,7.68799814 12.0370013,7.39100111 11.779,7.169 C11.5209987,6.94699889 11.1700022,6.836 10.726,6.836 C9.89799586,6.836 9.34600138,7.26799568 9.07,8.132 L7,7.592 C7.57600288,5.86399136 8.83599028,5 10.78,5 C11.7640049,5 12.6339962,5.24599754 13.39,5.738 C14.1460038,6.23000246 14.524,6.93199544 14.524,7.844 C14.524,8.79200474 14.1100041,9.565997 13.282,10.166 C12.6099966,10.6460024 12.1570012,11.0389985 11.923,11.345 C11.6889988,11.6510015 11.572,12.0259978 11.572,12.47 Z M9.376,16.016 L9.376,13.55 L11.824,13.55 L11.824,16.016 L9.376,16.016 Z" id="?" fill="#FFFFFF" fill-rule="nonzero"></path>
            </g>
        </g>
    </g>
</svg>