<?xml version="1.0" encoding="UTF-8"?>
<svg width="41px" height="44px" viewBox="0 0 41 44" version="1.1" xmlns="http://www.w3.org/2000/svg" xmlns:xlink="http://www.w3.org/1999/xlink">
    <!-- Generator: Sketch 53 (72520) - https://sketchapp.com -->
    <title>Fill 17</title>
    <desc>Created with Sketch.</desc>
    <g id="Page-1" stroke="none" stroke-width="1" fill="none" fill-rule="evenodd">
        <g id="Home" transform="translate(-820.000000, -1112.000000)" fill="#CD1422">
            <path d="M833.387332,1117.47811 C833.403622,1117.48769 833.419432,1117.49679 833.435243,1117.50684 C833.480758,1117.53605 833.539208,1117.52312 833.572746,1117.48003 C833.89135,1117.06876 834.43753,1116.928 834.725951,1117.09174 C835.311895,1117.42545 835.165769,1118.03924 834.929091,1118.35953 C834.94586,1118.37294 834.974127,1118.39784 834.996645,1118.42513 C835.478145,1118.20872 836.102897,1118.25229 836.579127,1118.46391 C837.165072,1118.72484 837.529671,1119.08727 837.825757,1119.51242 C837.883729,1119.59573 838.012608,1119.55503 838.012608,1119.45305 C838.012608,1118.51753 837.559854,1117.49008 836.525467,1116.96487 C835.5021,1116.44492 834.138089,1116.40901 833.355232,1117.32443 C833.31355,1117.37326 833.331277,1117.44747 833.387332,1117.47811 M832.022363,1118.83543 C832.284912,1118.68462 832.565668,1118.5927 832.834445,1118.49838 C832.892896,1118.47779 832.919247,1118.40933 832.890022,1118.35475 C832.822947,1118.22883 832.771204,1118.09908 832.761142,1117.96167 C832.75731,1117.90279 832.70365,1117.86017 832.645199,1117.86927 C832.515841,1117.88938 832.373068,1117.91332 832.223108,1117.9497 C831.849885,1118.03971 831.48337,1118.24798 831.372218,1118.45481 C831.254838,1118.67265 831.184409,1118.95656 831.107752,1119.22372 C831.080923,1119.31708 831.186805,1119.39177 831.264899,1119.33384 C831.50493,1119.15813 831.755981,1118.9896 832.022363,1118.83543 M832.135911,1125.46309 C830.993726,1125.36446 830.369452,1125.01256 829.982336,1124.56491 C829.932988,1124.50794 829.962692,1124.41793 830.036475,1124.40117 C830.617628,1124.27477 831.637163,1123.86064 832.104769,1123.51017 C832.334739,1123.33686 832.546024,1123.14008 832.736229,1122.92416 C832.798513,1122.8533 832.738625,1122.74557 832.645199,1122.75515 C832.18478,1122.80446 831.646266,1122.64503 831.436418,1122.22132 C831.404318,1122.15668 831.32287,1122.1404 831.271606,1122.19068 C830.907487,1122.54832 830.177331,1122.91362 829.344647,1123.12907 C829.223913,1123.16067 828.98484,1123.27127 828.885186,1123.34931 C827.614601,1124.34563 826.695678,1126.27796 826.631957,1127.54862 C826.630999,1127.56299 826.627645,1127.57543 826.620938,1127.58788 C826.310957,1128.16624 825.911863,1129.22194 826.279815,1130.84976 C826.753171,1132.942 827.878108,1133.88901 829.077307,1134.76852 C829.582762,1135.13909 830.14571,1135.41917 830.744591,1135.66191 C830.840412,1135.70117 830.925214,1135.58674 830.860534,1135.50583 C829.886515,1134.28735 829.278531,1133.14261 829.278531,1132.10894 C829.278531,1130.58596 830.597985,1129.88121 831.646745,1129.773 C831.673096,1129.77013 831.696572,1129.75672 831.712862,1129.73566 C831.878632,1129.52069 832.112914,1129.33157 832.294015,1129.20901 C832.337135,1129.1798 832.348633,1129.12283 832.322762,1129.07782 C831.759335,1128.09059 831.629976,1126.82041 832.217838,1125.60816 C832.249459,1125.544 832.207298,1125.46931 832.135911,1125.46309 M838.742284,1112.21305 C838.170713,1112.26715 837.543086,1112.51515 837.058232,1113.02505 C837.001218,1113.08489 836.89869,1113.05425 836.884796,1112.97286 C836.839281,1112.69996 836.868027,1112.34423 836.854133,1112.09575 C836.849821,1112.01962 836.76502,1111.9751 836.699862,1112.01484 C836.124457,1112.3653 835.556239,1112.82013 835.139418,1113.63931 C835.098694,1113.71927 834.97796,1113.71113 834.952567,1113.62543 C834.88166,1113.38556 834.895554,1113.0983 834.883576,1112.8886 C834.878306,1112.80194 834.774819,1112.76076 834.711098,1112.82013 C834.256428,1113.24432 833.849668,1113.89498 833.637425,1114.53031 C833.608199,1114.61745 833.486986,1114.62319 833.448658,1114.53941 C833.368647,1114.36465 833.328402,1114.14729 833.267077,1113.98499 C833.243122,1113.92083 833.159758,1113.90072 833.107535,1113.94525 C832.116747,1114.78454 831.665909,1116.19644 831.847011,1117.37661 C831.855635,1117.43072 831.905941,1117.46806 831.960559,1117.46231 C832.219275,1117.43407 832.538838,1117.30384 832.866066,1117.334 C832.901999,1117.33735 832.936974,1117.32251 832.958054,1117.29331 C833.993879,1115.86561 835.858554,1115.75214 837.141596,1116.57802 C837.161718,1116.59095 837.187111,1116.59669 837.211066,1116.59334 C838.267971,1116.44732 838.96411,1115.91109 839.219952,1115.19006 C839.508373,1114.37902 839.343561,1113.06191 838.839064,1112.26092 C838.818462,1112.22789 838.780613,1112.2097 838.742284,1112.21305 M834.434655,1118.45673 C834.386265,1118.41747 834.387224,1118.34804 834.431301,1118.30448 C834.478733,1118.2566 834.519456,1118.19771 834.549161,1118.12972 C834.656959,1117.88411 834.582219,1117.61409 834.382912,1117.52743 C834.183125,1117.44029 833.93447,1117.56908 833.82715,1117.81469 C833.799841,1117.87693 833.784989,1117.94061 833.780677,1118.00237 C833.776365,1118.06365 833.716477,1118.10626 833.656589,1118.09094 C833.601492,1118.07706 833.550228,1118.08663 833.50615,1118.1484 C833.456323,1118.21925 833.460635,1118.34661 833.548311,1118.49455 C833.609158,1118.59701 833.703541,1118.70904 833.818047,1118.79522 C833.916743,1118.86991 834.013522,1118.94699 834.098803,1119.03269 C834.14288,1119.07626 834.215225,1119.07051 834.251637,1119.01976 C834.333085,1118.90725 834.435613,1118.79809 834.537662,1118.71048 C834.579344,1118.67505 834.584615,1118.61137 834.549161,1118.56972 C834.513707,1118.52711 834.473462,1118.4888 834.434655,1118.45673 M833.736599,1120.21478 C833.728934,1120.12716 833.622093,1120.09126 833.55981,1120.1535 C833.28672,1120.42879 832.963325,1120.57099 832.586748,1120.75914 C832.163699,1120.9698 831.845574,1121.23313 831.845574,1121.65876 C831.845574,1121.9307 832.076502,1122.18493 832.449245,1122.18493 C832.82151,1122.18493 833.141552,1122.03747 833.413204,1121.62333 C833.706895,1121.1752 833.780677,1120.7309 833.736599,1120.21478 M830.439402,1121.22451 C830.439402,1121.55534 830.657873,1121.68892 830.883052,1121.68892 C831.210281,1121.68892 831.351138,1121.47826 831.572484,1121.02438 C831.721485,1120.71893 831.902587,1120.49007 832.135911,1120.30718 C832.215921,1120.24446 832.168011,1120.11807 832.066441,1120.12429 C831.457499,1120.16116 830.979352,1120.36799 830.664102,1120.69738 C830.522287,1120.8458 830.448984,1121.04976 830.439402,1121.22451 M831.888214,1119.37022 C831.805808,1119.41379 831.820181,1119.53732 831.910732,1119.55982 C832.207298,1119.63259 832.569501,1119.6527 832.812407,1119.62589 C832.980093,1119.60722 833.292469,1119.52487 833.475487,1119.47747 C833.536813,1119.46119 833.569392,1119.39368 833.542562,1119.33623 C833.507108,1119.26106 833.46351,1119.18302 833.407455,1119.10594 C833.339901,1119.01402 833.27618,1118.92927 833.218687,1118.8474 C833.191378,1118.80862 833.14251,1118.7933 833.097953,1118.81006 C832.820072,1118.91683 832.545066,1119.04035 832.277726,1119.17105 C832.172802,1119.22276 832.028112,1119.29601 831.888214,1119.37022 M854.380259,1126.88696 C853.561469,1126.26455 852.547684,1125.8169 851.03036,1125.51001 C850.958015,1125.49517 850.925436,1125.41138 850.969034,1125.35153 C851.250269,1124.96564 851.471615,1124.54289 851.610555,1124.06555 C851.630678,1123.99613 851.57079,1123.92719 851.498924,1123.9382 C850.257564,1124.12588 848.684663,1124.62428 847.606678,1125.23376 C846.681527,1125.75658 845.93077,1126.841 845.767875,1128.29455 C845.758772,1128.37786 845.845969,1128.43579 845.918313,1128.39366 C846.822384,1127.87084 847.810298,1127.49261 848.820729,1127.28099 C848.834144,1127.27812 848.846601,1127.27285 848.85762,1127.26471 C849.327622,1126.93484 849.773189,1126.59922 850.167971,1126.23631 C850.186177,1126.22003 850.208695,1126.21093 850.23313,1126.20997 C851.798843,1126.15587 853.121651,1126.56092 854.280126,1127.0598 C854.389841,1127.10672 854.475601,1126.95878 854.380259,1126.88696 M835.547136,1126.21907 C835.034015,1126.75721 834.112217,1127.59076 833.753847,1128.27492 C833.714561,1128.34961 833.782594,1128.43531 833.865,1128.41712 C834.492147,1128.27684 835.263027,1128.32088 835.872927,1128.49707 C835.955812,1128.52101 836.030552,1128.43818 835.993182,1128.36062 C835.711469,1127.7746 835.760816,1126.98607 835.720093,1126.28323 C835.714822,1126.19561 835.607503,1126.15539 835.547136,1126.21907 M832.758268,1128.3477 C832.789889,1128.43004 832.907748,1128.43148 832.942723,1128.35009 C833.368168,1127.37244 834.071494,1126.71029 834.741761,1126.03043 C835.210804,1125.55501 835.570612,1125.13848 835.870052,1124.63433 C835.914609,1124.55964 836.02672,1124.57449 836.052112,1124.65779 C836.226027,1125.22274 836.344366,1125.81164 836.334784,1126.43165 C836.327118,1126.94824 836.319452,1127.35376 836.379341,1127.69034 C836.399463,1127.80142 836.560921,1127.79759 836.57769,1127.68603 C836.745856,1126.54033 837.27862,1125.63018 837.572311,1124.86558 C838.023148,1123.69067 838.162568,1122.87628 838.162568,1122.15525 C838.162568,1119.98018 836.920729,1118.8632 835.767045,1118.8632 C834.962628,1118.8632 834.572637,1119.40087 834.458131,1120.06444 C834.358477,1120.6428 834.347458,1121.36336 833.868353,1122.30893 C833.526752,1122.984 832.87996,1123.89942 831.551882,1124.52613 C831.464206,1124.56778 831.480017,1124.69801 831.574879,1124.71668 C832.326115,1124.86319 832.983447,1124.811 833.548311,1124.72003 C833.648923,1124.70375 833.705458,1124.82967 833.627364,1124.89574 C832.910144,1125.49948 832.648553,1126.19465 832.551774,1126.96691 C832.496677,1127.41026 832.599205,1127.93451 832.758268,1128.3477 M854.733359,1148.85689 C854.686886,1148.96174 854.527344,1148.92105 854.540759,1148.8071 C854.717549,1147.32482 855.457765,1145.83775 856.262661,1144.49 C857.466172,1142.47581 858.181475,1140.24137 858.32329,1138.09456 C858.591589,1134.04222 855.416083,1130.00664 851.819445,1129.24252 C851.705418,1129.2181 851.713084,1129.05245 851.829506,1129.04287 C853.784732,1128.88536 856.020713,1129.43547 857.501626,1130.51606 C859.14208,1131.71251 860.753788,1134.41997 860.753788,1137.80059 C860.753788,1141.08689 859.786955,1143.01299 859.040031,1144.97596 C858.227948,1147.11129 857.688956,1149.37014 857.710036,1151.51169 C857.710994,1151.61893 857.564868,1151.65245 857.519353,1151.55574 C856.68044,1149.77231 856.796863,1147.86583 856.954967,1146.5607 C856.965029,1146.47643 856.87352,1146.41946 856.801175,1146.46399 C855.966095,1146.9801 855.269477,1147.65517 854.733359,1148.85689 M857.667875,1138.18265 C857.788609,1136.35613 857.185417,1134.55068 856.226728,1133.05451 C855.382546,1131.73693 853.660165,1130.1881 851.600494,1129.81944 C851.489821,1129.79981 851.436161,1129.95398 851.535336,1130.00664 C852.466715,1130.50505 853.237116,1131.28066 853.720532,1132.12043 C853.767963,1132.20325 853.684599,1132.29901 853.595486,1132.26406 C853.117339,1132.07446 852.63536,1131.96147 852.136133,1131.8954 C852.027376,1131.88104 851.976591,1132.02563 852.070975,1132.08117 C853.912653,1133.16702 854.826785,1135.15489 854.826785,1136.98811 C854.826785,1139.80521 852.824606,1141.03518 851.765306,1141.35165 C851.155406,1141.53358 850.499991,1141.56757 849.86901,1141.46272 C849.766003,1141.44549 849.708989,1141.58289 849.794749,1141.64274 C850.753437,1142.3159 852.322026,1142.36856 853.543743,1141.87159 C854.333786,1141.54986 855.038549,1140.94182 855.466389,1140.29643 C855.519091,1140.21696 855.642221,1140.24616 855.651324,1140.34048 C855.72271,1141.073 855.613474,1141.78589 855.452495,1142.37 C855.425665,1142.46719 855.543525,1142.53709 855.618265,1142.4691 C856.556831,1141.61258 857.538517,1140.14083 857.667875,1138.18265 M854.59394,1142.01618 C853.114944,1142.9091 851.634032,1142.90957 850.529216,1142.60651 C850.494242,1142.59694 850.45783,1142.60651 850.432437,1142.63284 C849.845055,1143.24041 849.091423,1143.89728 847.900369,1144.11752 C847.798799,1144.13619 847.790175,1144.28078 847.88935,1144.31238 C848.492063,1144.50293 849.041117,1144.45314 849.517347,1144.25924 C849.60167,1144.22476 849.684076,1144.31669 849.643831,1144.39856 C849.247611,1145.2005 848.62238,1145.68502 848.029727,1146.06708 C847.940614,1146.12453 847.989004,1146.2629 848.094886,1146.25285 C849.000873,1146.16667 849.832119,1145.73529 850.412794,1145.29099 C850.485618,1145.23545 850.586709,1145.29674 850.572336,1145.38722 C850.298288,1147.07586 850.279124,1148.52845 850.501428,1149.78188 C850.52203,1149.89966 850.693549,1149.88961 850.700736,1149.77039 C850.827219,1147.74853 851.624449,1146.44436 852.448988,1145.50883 C852.503606,1145.44659 852.605177,1145.47628 852.622424,1145.55767 C852.750345,1146.15805 852.973608,1146.65166 853.211723,1147.06197 C853.261071,1147.14767 853.390429,1147.11895 853.399532,1147.02032 C853.600277,1144.81892 854.215447,1143.25094 854.737671,1142.14306 C854.780312,1142.05257 854.6797,1141.96448 854.59394,1142.01618 M847.114159,1143.49416 C846.18757,1142.40591 845.927896,1141.33585 845.839261,1140.26005 C845.832554,1140.17578 845.9255,1140.11976 845.995449,1140.16764 C846.554085,1140.55305 847.215729,1140.84463 847.924804,1140.87096 C848.019666,1140.87479 848.064223,1140.75653 847.992836,1140.69381 C846.516236,1139.40544 845.314163,1137.74409 844.355474,1135.5312 C843.571659,1133.72192 842.607701,1132.15298 840.883403,1130.85934 C840.081382,1130.25704 839.021123,1129.65953 837.827195,1129.2995 C837.721792,1129.2679 837.651842,1129.40483 837.736644,1129.47425 C839.79871,1131.15714 839.654021,1133.39205 839.006271,1134.6359 C838.963631,1134.71729 839.042204,1134.80969 839.128443,1134.7781 C839.591258,1134.60861 839.929506,1134.37976 840.156122,1134.18202 C840.21074,1134.13415 840.2965,1134.15808 840.318539,1134.22751 C840.934188,1136.1809 840.801476,1138.03614 840.454125,1139.10094 C840.425858,1139.18664 840.520242,1139.26276 840.599773,1139.21919 C841.649491,1138.63653 842.380605,1137.62871 842.678129,1136.71569 C842.708313,1136.62329 842.835275,1136.62089 842.868813,1136.71186 C843.709162,1139.00039 843.417387,1140.99736 842.605305,1142.73578 C842.562665,1142.82723 842.665672,1142.91724 842.750474,1142.86265 C843.067641,1142.65726 843.416429,1142.3925 843.718265,1142.11721 C843.783902,1142.05688 843.890264,1142.10619 843.885473,1142.19525 C843.794922,1143.85659 844.269235,1145.18327 844.998912,1146.31365 C845.054488,1146.39887 845.187679,1146.35674 845.184325,1146.25524 C845.136894,1144.90702 845.290207,1143.59614 845.441125,1142.6046 C845.455019,1142.51028 845.58294,1142.48634 845.628934,1142.57012 C845.995449,1143.23658 846.495155,1143.53533 847.014026,1143.65742 C847.108888,1143.67992 847.1774,1143.56885 847.114159,1143.49416 M842.97709,1146.1523 C843.146214,1145.54666 842.968945,1144.99894 842.97709,1144.44979 C842.98236,1144.12183 843.091117,1143.74647 843.213768,1143.3826 C843.244431,1143.29211 843.14286,1143.21455 843.063329,1143.26818 C842.532002,1143.62534 841.902459,1143.95138 841.307411,1144.2037 C841.212548,1144.24391 841.125351,1144.12997 841.189072,1144.04953 C841.743396,1143.34622 842.268974,1142.42889 842.521941,1141.50438 C842.539668,1141.4407 842.490799,1141.37798 842.424203,1141.37798 C841.183802,1141.3799 839.336374,1141.23866 837.880854,1140.63492 C837.865044,1140.62822 837.848754,1140.62583 837.831507,1140.62822 C837.179445,1140.71679 836.153203,1140.791 835.09534,1140.63588 C835.017246,1140.62439 834.954963,1140.70243 834.987063,1140.77425 C835.527493,1141.98363 836.532654,1142.94692 838.138613,1143.94037 C838.872122,1144.39425 839.732115,1145.01043 839.945316,1145.93063 C839.958731,1145.98952 840.019098,1146.02543 840.076591,1146.00532 C840.404298,1145.89042 840.548988,1145.9675 840.691282,1146.23513 C840.818245,1146.47452 840.979224,1146.71773 841.155534,1146.71965 C841.299266,1146.72156 841.347655,1146.68135 841.565648,1146.63634 C841.699318,1146.61288 841.829635,1146.6215 841.920665,1146.66268 C842.085477,1146.73689 842.198545,1146.76465 842.293887,1146.74933 C842.663756,1146.69044 842.876478,1146.51282 842.97709,1146.1523 M836.191532,1143.27871 C835.543303,1142.71998 834.67804,1141.89697 834.221453,1140.53678 C834.210434,1140.50326 834.182167,1140.47789 834.147671,1140.47071 C833.475487,1140.33426 832.804741,1140.13652 832.177114,1139.85644 C832.107644,1139.8258 832.028592,1139.87798 832.035299,1139.95363 C832.064524,1140.28159 832.228857,1140.67083 832.265748,1141.05146 C832.295932,1141.36218 832.165136,1141.38133 832.029071,1141.40623 C831.865217,1141.43591 832.072669,1141.94389 832.921643,1142.4691 C832.958054,1142.49208 832.978177,1142.53517 832.967637,1142.57683 C832.883314,1142.92107 832.844507,1143.57268 833.435722,1143.95474 C833.810382,1144.19747 834.334043,1144.18933 835.055095,1143.8135 C835.415382,1143.62534 835.731591,1143.52671 836.142184,1143.4525 C836.225069,1143.43718 836.255252,1143.33329 836.191532,1143.27871 M836.843593,1139.90767 C836.517323,1139.64482 836.22459,1139.32213 836.045884,1139.09854 C836.034864,1139.08466 836.02097,1139.0746 836.004202,1139.06838 C834.599946,1138.54747 833.408413,1137.86187 832.126808,1136.83299 C832.116747,1136.82533 832.105727,1136.8191 832.093271,1136.81575 C830.977915,1136.48636 829.888431,1136.00232 828.515317,1134.95333 C828.435786,1134.89252 828.326071,1134.97296 828.359129,1135.06727 C829.496524,1138.32054 832.685923,1140.16525 836.784663,1140.08721 C836.879047,1140.08529 836.916896,1139.96656 836.843593,1139.90767 M841.662906,1139.35516 C841.989176,1139.35995 842.394978,1139.36043 842.711187,1139.33266 C842.762451,1139.32835 842.801259,1139.28526 842.801738,1139.23308 C842.803175,1138.98603 842.770117,1138.61115 842.702563,1138.27936 C842.685315,1138.19462 842.575121,1138.17068 842.523857,1138.24058 C842.290054,1138.55753 842.006424,1138.88166 841.607809,1139.17323 C841.529236,1139.23068 841.565648,1139.35373 841.662906,1139.35516 M835.168164,1138.04572 C836.843114,1138.83474 838.328338,1139.12966 839.753674,1139.26946 C839.800627,1139.27425 839.844704,1139.24648 839.860036,1139.20244 C839.912737,1139.05066 839.95921,1138.89554 839.999455,1138.73898 C839.98077,1138.69637 839.967355,1138.66621 839.94867,1138.62408 C838.334566,1137.74601 836.949954,1137.68185 836.398505,1137.77186 C836.107209,1137.81926 835.681764,1137.87145 835.214158,1137.85421 C835.105401,1137.85038 835.069469,1137.99928 835.168164,1138.04572 M838.094056,1137.33522 C838.874038,1137.4755 839.459983,1137.70531 840.011912,1137.97343 C840.074195,1138.00359 840.146061,1137.96433 840.156122,1137.89634 C840.188222,1137.67371 840.196367,1137.45779 840.195888,1137.2117 C840.195409,1137.1576 840.153727,1137.11307 840.099588,1137.11116 C839.737385,1137.09775 839.01777,1137.02785 838.513272,1136.89571 C838.483089,1136.90145 838.459613,1136.90672 838.42895,1136.91246 C838.323068,1136.99338 838.189877,1137.07573 838.06004,1137.14946 C837.979071,1137.1959 838.001589,1137.31846 838.094056,1137.33522 M842.680045,1139.94406 C841.544567,1140.01156 839.645876,1140.00342 837.69592,1139.57253 C837.587163,1139.54859 837.525359,1139.69366 837.618784,1139.75494 C839.024477,1140.67514 841.068337,1140.81494 842.620157,1140.74935 C842.66663,1140.74791 842.70448,1140.71536 842.714062,1140.67035 C842.750953,1140.50566 842.778741,1140.25861 842.785927,1140.04891 C842.788323,1139.98906 842.739933,1139.9407 842.680045,1139.94406 M839.192164,1136.4787 C839.50454,1136.50886 839.831768,1136.52179 840.099588,1136.50503 C840.153727,1136.50168 840.194451,1136.45428 840.192534,1136.40018 C840.179598,1136.04349 840.134083,1135.7117 840.065092,1135.3555 C840.047365,1135.26501 839.926631,1135.2425 839.879679,1135.32246 C839.671747,1135.67867 839.41878,1136.01046 839.131317,1136.3073 C839.071908,1136.3681 839.107362,1136.47056 839.192164,1136.4787 M835.483415,1137.36634 C837.167947,1137.36634 838.368583,1136.61323 839.170125,1135.57908 C839.228097,1135.50439 839.161022,1135.39858 839.068555,1135.41869 C838.733661,1135.49051 838.235871,1135.54892 837.812342,1135.52977 C837.718917,1135.52546 837.682026,1135.4096 837.754371,1135.35071 C838.431346,1134.79677 838.907576,1133.86795 838.907576,1132.84433 C838.907576,1130.65442 836.778435,1128.87243 834.675645,1128.87243 C833.254141,1128.87243 832.450683,1129.74428 832.015177,1130.33317 C831.995533,1130.35902 831.96535,1130.37291 831.932771,1130.37195 C830.744591,1130.33748 829.805067,1131.02499 829.805067,1132.10894 C829.805067,1133.60702 832.058775,1137.36634 835.483415,1137.36634 M853.014332,1123.18078 C854.854573,1123.18078 856.582224,1123.65285 857.805857,1124.93883 C858.776044,1125.95814 859.210592,1127.51367 859.143038,1128.73837 C859.13681,1128.85184 859.293956,1128.88871 859.336596,1128.78338 C860.225335,1126.60353 859.652326,1124.60609 858.625605,1123.19945 C857.172002,1121.20871 854.65287,1120.17504 851.922932,1120.17504 C847.815568,1120.17504 844.798646,1122.41809 843.310547,1124.41601 C841.993488,1126.18364 841.416646,1128.47026 841.651408,1130.66256 C841.653803,1130.68842 841.666739,1130.71236 841.686861,1130.72911 C841.917311,1130.92302 842.140574,1131.12602 842.355212,1131.33859 C842.414142,1131.397 842.512359,1131.36397 842.524815,1131.2821 C843.253534,1126.37419 847.788738,1123.18078 853.014332,1123.18078 M849.811038,1119.76234 C851.397354,1119.48561 852.695248,1119.49088 854.03195,1119.75707 C854.051114,1119.7609 854.070758,1119.75899 854.088964,1119.75181 C855.169824,1119.30607 856.505088,1118.66978 857.597447,1117.6476 C857.678894,1117.57147 857.596488,1117.43838 857.492523,1117.48003 C856.623906,1117.83001 855.681507,1118.0761 854.445417,1118.01721 C854.351513,1118.0129 854.312226,1117.8956 854.386488,1117.83767 C855.016989,1117.34693 856.426994,1116.12223 857.019167,1113.87774 C857.046476,1113.77528 856.915202,1113.7073 856.845252,1113.78725 C854.450688,1116.52631 851.94545,1118.33512 849.744922,1119.5761 C849.646706,1119.63116 849.699886,1119.78149 849.811038,1119.76234 M845.204927,1127.04926 C844.3526,1127.99436 843.80115,1129.1415 843.479671,1130.24555 C843.449008,1130.35136 843.587469,1130.4203 843.656461,1130.3346 C844.071365,1129.81801 844.541846,1129.3378 845.07461,1128.94377 C845.100482,1128.92462 845.115334,1128.89445 845.114376,1128.8619 C845.095691,1128.33381 845.175222,1127.74444 845.375009,1127.14645 C845.409983,1127.04256 845.27823,1126.96739 845.204927,1127.04926 M852.566369,1125.38361 C852.779092,1124.92878 852.936238,1124.39399 852.99373,1123.93485 C853.000917,1123.87452 852.952048,1123.82186 852.891681,1123.82233 C852.689499,1123.82521 852.48588,1123.8343 852.281781,1123.84962 C852.238182,1123.8525 852.20225,1123.8841 852.192188,1123.92671 C852.093972,1124.34037 851.941138,1124.74254 851.738476,1125.11646 C851.706855,1125.17487 851.737997,1125.24573 851.802676,1125.26057 C852.018753,1125.31228 852.232912,1125.37021 852.445635,1125.4358 C852.493545,1125.45016 852.544809,1125.42862 852.566369,1125.38361 M851.160197,1126.68635 C850.937893,1126.67438 850.715588,1126.67295 850.493283,1126.68109 C850.469328,1126.68157 850.447289,1126.69018 850.429563,1126.70598 C850.36153,1126.76679 850.27577,1126.84195 850.188094,1126.91664 C850.11527,1126.97888 850.162222,1127.0981 850.257564,1127.09331 C850.459267,1127.08326 850.674864,1127.0799 850.843988,1127.08326 C850.862673,1127.08374 850.879921,1127.07943 850.89621,1127.07033 C851.004967,1127.00857 851.111328,1126.94154 851.213857,1126.8702 C851.293388,1126.81514 851.256497,1126.69162 851.160197,1126.68635 M852.76903,1128.51431 C853.132192,1128.51191 853.538472,1128.52819 853.969667,1128.57463 C854.084173,1128.58708 854.125376,1128.42526 854.018535,1128.38073 C852.910845,1127.92063 851.710209,1127.69034 850.506698,1127.71859 C848.848996,1127.75785 847.155362,1128.30221 845.73817,1129.25114 C844.670246,1129.96595 843.731201,1130.99435 843.131841,1132.09792 C843.112198,1132.13335 843.11651,1132.17692 843.141902,1132.20852 C843.228141,1132.31624 843.312943,1132.42636 843.395828,1132.53983 L843.47488,1132.65282 C843.511771,1132.70501 843.586511,1132.7098 843.63011,1132.66288 C844.706179,1131.50089 846.004552,1130.52276 847.419348,1129.81992 C849.110587,1128.97968 850.96041,1128.52819 852.76903,1128.51431 M852.087264,1131.27252 C852.184523,1131.28593 852.242015,1131.16575 852.16967,1131.09968 C851.467303,1130.45813 850.591021,1130.00473 849.341516,1130.00473 C847.595659,1130.00473 845.588689,1131.40227 843.942965,1133.25608 C843.914698,1133.28815 843.908949,1133.33412 843.92955,1133.37146 C843.99902,1133.49786 844.073761,1133.62952 844.145147,1133.7607 C844.177247,1133.81911 844.255341,1133.83012 844.303252,1133.78416 C846.479345,1131.67421 849.121607,1131.17724 850.672948,1131.17724 C851.160197,1131.17724 851.623491,1131.20597 852.087264,1131.27252 M851.876938,1140.54922 C851.837172,1140.63445 851.922452,1140.72541 852.008212,1140.68615 C853.195433,1140.14275 854.183347,1138.90799 854.183347,1136.94023 C854.183347,1134.60286 852.340232,1132.04382 849.639998,1132.04382 C847.212854,1132.04382 845.295477,1133.67165 844.557656,1134.42715 C844.527952,1134.45732 844.521244,1134.50136 844.53945,1134.53919 C844.679828,1134.83363 844.842244,1135.19654 844.982143,1135.49003 C845.007536,1135.54365 845.073652,1135.56089 845.125395,1135.53168 C845.906815,1135.08499 846.600558,1135.49195 846.800345,1135.68776 C847.576495,1136.44758 847.325923,1137.39076 846.991987,1137.94757 C846.948867,1138.02035 847.004923,1138.11275 847.088766,1138.10222 C847.805027,1138.01173 848.688975,1137.53008 849.124961,1136.57301 C849.16281,1136.48971 849.281149,1136.49354 849.311332,1136.57924 C849.583943,1137.35629 849.781334,1138.1793 849.456501,1139.13158 C849.434941,1139.19478 849.47854,1139.26372 849.545614,1139.26659 C850.51101,1139.30441 851.254581,1138.93672 851.829027,1138.20994 C851.88077,1138.14483 851.985694,1138.16829 852.004858,1138.24968 C852.182606,1138.98842 852.1644,1139.93592 851.876938,1140.54922 M846.705003,1136.2101 C846.470721,1135.84576 845.814827,1135.53599 845.276313,1135.9329 C845.239422,1135.96066 845.227445,1136.01141 845.246609,1136.05355 C845.389382,1136.37097 845.575275,1136.71521 845.729067,1136.98476 C845.764521,1137.047 845.852197,1137.05275 845.895316,1136.99529 C846.137264,1136.67451 846.408917,1136.48684 846.664279,1136.35422 C846.716981,1136.32645 846.737582,1136.26038 846.705003,1136.2101 M832.316054,1142.86696 C832.179989,1142.35899 831.671179,1142.20769 831.537988,1141.73467 C831.52649,1141.69349 831.492953,1141.66237 831.450791,1141.65806 C830.925214,1141.60731 830.423112,1141.52257 829.846749,1141.37415 C828.831047,1141.11178 827.954286,1140.79675 827.069859,1140.3151 C826.631957,1140.07668 826.145187,1139.98858 825.656021,1139.93448 C825.266988,1139.89139 824.813276,1139.91102 824.537791,1139.88086 C824.262785,1139.85022 824.097973,1139.97422 823.902498,1140.07859 C823.707023,1140.18248 821.861033,1141.21951 820.883181,1141.27792 C820.447196,1141.30425 820.015522,1141.75621 820.00067,1142.14354 C819.986297,1142.53039 820.20381,1143.11497 820.588052,1143.11497 C820.497023,1142.92585 820.315442,1142.64098 820.342751,1142.58497 C820.413179,1142.45043 822.561005,1141.52592 823.186237,1141.03566 C823.214025,1141.01363 823.249479,1141.00789 823.282537,1141.01938 C823.301222,1141.02608 823.319907,1141.03278 823.338113,1141.03901 C823.390335,1141.0572 823.42004,1141.11226 823.402313,1141.16445 C823.245646,1141.62981 822.481953,1142.49208 822.345408,1143.02257 C822.217487,1143.52001 822.346366,1143.98346 822.66545,1144.15774 C822.739711,1144.19843 822.830741,1144.1338 822.813972,1144.05097 C822.78858,1143.92984 822.747377,1143.83887 822.782831,1143.74025 C822.881526,1143.5473 823.146471,1143.45394 823.219774,1143.20977 C823.423873,1142.53422 823.375004,1141.69493 823.975322,1141.24488 C823.997361,1141.2286 824.026107,1141.22286 824.053416,1141.22717 C824.28147,1141.26499 824.489401,1141.27648 824.703082,1141.27409 C825.090198,1141.26978 825.448569,1141.13907 825.640211,1141.1046 C825.689079,1141.0955 825.738427,1141.12184 825.755196,1141.16876 C825.980854,1141.80792 825.847184,1142.49927 826.043617,1143.16715 C826.141354,1143.49847 826.316706,1143.76849 826.5874,1143.98011 C826.629082,1144.01267 826.638665,1144.05911 826.634353,1144.11321 C826.62525,1144.22285 826.776647,1144.2669 826.824078,1144.16827 C827.228921,1143.32659 826.60896,1142.20386 826.46475,1141.19078 C826.455647,1141.12902 826.506911,1141.07348 826.569674,1141.07779 C827.140287,1141.11513 827.826844,1141.33058 828.141616,1141.76579 C828.285826,1141.96496 828.316489,1142.28908 828.39075,1142.58497 C828.438182,1142.77504 828.399374,1142.94788 828.383564,1143.12694 C828.374461,1143.23035 828.511964,1143.28158 828.567061,1143.19349 C828.776908,1142.85882 828.776908,1142.40255 828.776908,1142.00996 C828.776908,1141.90846 828.919203,1141.90559 828.974779,1141.90846 C829.414597,1141.93575 829.844833,1142.05975 830.245364,1142.20434 C830.991809,1142.47437 831.613687,1142.70514 832.150763,1143.25621 C832.209693,1143.31701 832.312701,1143.28206 832.321804,1143.19827 C832.333781,1143.09103 832.341447,1142.97421 832.316054,1142.86696 M840.770813,1150.40429 C840.536531,1150.39998 840.272545,1150.40381 840.072279,1150.37604 C840.031076,1150.37077 839.989394,1150.38801 839.969271,1150.42439 C839.923756,1150.50674 839.881116,1150.60202 839.840392,1150.69299 C839.80925,1150.76145 839.861952,1150.83901 839.937171,1150.8347 C840.229904,1150.81938 840.5533,1150.74134 840.819203,1150.59292 C840.908316,1150.54313 840.872863,1150.4062 840.770813,1150.40429 M839.180186,1152.31794 C839.400574,1152.75506 840.415318,1153.31331 840.583004,1153.72506 C840.59067,1153.74421 840.603127,1153.75953 840.620854,1153.77102 C840.998867,1154.01136 841.120081,1154.46763 840.923169,1154.82623 C840.872863,1154.91816 840.732485,1154.88225 840.733443,1154.7774 C840.734881,1154.54088 840.703739,1154.31251 840.498203,1154.29049 C840.299854,1154.26942 840.054552,1154.34459 839.815,1154.27612 C839.540952,1154.19713 839.324876,1153.92949 839.218514,1153.66521 C839.201746,1153.62403 839.162459,1153.59818 839.117423,1153.60153 C838.427992,1153.65037 837.741914,1153.47466 837.052962,1153.58094 C837.020862,1153.58573 836.993553,1153.60584 836.9787,1153.63409 C836.637578,1154.28091 836.196802,1155.11254 835.337288,1155.05221 C835.295127,1155.04934 835.252966,1155.07041 835.236676,1155.10967 C835.148042,1155.32272 835.184454,1155.5171 835.224219,1155.72633 C835.238113,1155.80006 835.168643,1155.86278 835.096298,1155.84219 C834.959754,1155.80293 834.839019,1155.71867 834.769549,1155.61381 C834.670853,1155.46587 834.665104,1155.36916 834.673249,1155.22457 C834.712536,1154.54759 835.216554,1154.13824 835.688472,1153.69872 C835.737819,1153.65276 835.728716,1153.56898 835.668349,1153.53738 C835.398613,1153.39614 835.221824,1153.49237 834.867765,1153.44737 C834.737928,1153.43109 834.546286,1153.50338 834.401597,1153.47274 C834.356082,1153.46317 834.308171,1153.47753 834.287091,1153.5187 C834.163961,1153.75761 833.893267,1153.8797 833.631676,1153.80932 C833.487465,1153.77102 833.42087,1153.88832 833.389249,1153.95056 C833.317383,1154.09467 833.37775,1154.25649 833.411287,1154.41928 C833.428535,1154.50546 833.336068,1154.572 833.260849,1154.52604 C833.169819,1154.47098 833.082622,1154.44226 833.017943,1154.31921 C832.939369,1154.16984 832.834925,1153.89119 832.794201,1153.78107 C832.78366,1153.75139 832.787014,1153.71931 832.804262,1153.69298 C832.873253,1153.58621 833.057229,1153.30757 833.149696,1153.22043 C833.524835,1152.86614 833.965132,1152.74788 834.507479,1152.74788 C835.331539,1152.74788 836.214049,1152.65213 837.041942,1152.60712 C837.179924,1152.60712 837.932119,1151.4753 838.179816,1151.04249 C838.861102,1149.98249 839.405844,1149.05798 839.865306,1147.8936 C839.977416,1147.60921 840.05024,1147.18645 840.019577,1146.77614 C840.015265,1146.72204 840.053594,1146.67225 840.107733,1146.66698 C840.508264,1146.6306 840.571027,1147.17927 840.839325,1147.31237 C841.091334,1147.43685 841.483242,1147.21039 841.802805,1147.29274 C841.879941,1147.31285 841.902459,1147.41196 841.84257,1147.4651 C840.663494,1148.50739 839.47244,1149.86758 839.136108,1151.30869 C839.062326,1151.62228 838.997168,1151.95551 839.180186,1152.31794" id="Fill-17"></path>
        </g>
    </g>
</svg>