<?xml version="1.0" encoding="UTF-8"?>
<svg width="203px" height="70px" viewBox="0 0 203 70" version="1.1" xmlns="http://www.w3.org/2000/svg" xmlns:xlink="http://www.w3.org/1999/xlink">
    <!-- Generator: Sketch 53 (72520) - https://sketchapp.com -->
    <title>Group 51</title>
    <desc>Created with Sketch.</desc>
    <g id="Page-1" stroke="none" stroke-width="1" fill="none" fill-rule="evenodd">
        <g id="Home" transform="translate(-100.000000, -50.000000)">
            <g id="Group-51" transform="translate(100.000000, 50.000000)">
                <path d="M66.5762792,21.5384615 L62.5663687,21.5384615 C62.5241147,21.5384615 62.487025,21.5086419 62.4762267,21.4667983 L59.3250128,8.76171622 C59.3010688,8.6655239 59.1682032,8.66600486 59.1442593,8.76219719 L56.0442196,21.4663173 C56.0338909,21.5086419 55.9968012,21.5384615 55.9540776,21.5384615 L51.9441672,21.5384615 C51.9019132,21.5384615 51.8648235,21.5091229 51.8540252,21.4677602 L46.9084221,2.42793271 C46.8929289,2.36733155 46.937061,2.30769231 46.9985641,2.30769231 L51.0629353,2.30769231 C51.1061283,2.30769231 51.143218,2.33799289 51.1535468,2.38079847 L54.0953684,14.9810309 C54.1179039,15.0786661 54.2535864,15.0786661 54.2765914,14.9810309 L57.1925911,2.38079847 C57.2029199,2.33799289 57.2400096,2.30769231 57.2836721,2.30769231 L61.1067257,2.30769231 C61.1494492,2.30769231 61.1870084,2.33751193 61.1973372,2.38031751 L64.241038,15.0094076 C64.2645125,15.1070428 64.400195,15.1055999 64.422261,15.0079647 L67.2626729,2.3817604 C67.2725322,2.33847385 67.3100914,2.30769231 67.3537539,2.30769231 L71.4181251,2.30769231 C71.4791587,2.30769231 71.5237603,2.36685059 71.5082671,2.42745175 L66.6664212,21.4672792 C66.6556229,21.5091229 66.6185332,21.5384615 66.5762792,21.5384615" id="Fill-1" fill="#CD1422"></path>
                <path d="M78.6797328,16.2313328 L78.6797328,15.3847915 C78.6797328,15.3164372 78.6153044,15.2715051 78.5536771,15.2973172 C78.2221973,15.4373717 77.7408512,15.5702562 77.1110395,15.6959707 L75.82994,15.9368836 C75.0455933,16.0798062 74.4918819,16.298253 74.1697395,16.5927022 C73.8471303,16.8871513 73.6860591,17.311139 73.6860591,17.8641871 C73.6860591,18.3995492 73.8690733,18.8192348 74.2351017,19.122288 C74.6011302,19.4258191 75.0978831,19.5773457 75.7253604,19.5773457 C76.6665764,19.5773457 77.3944314,19.2876766 77.9084586,18.7073824 C78.4224858,18.1275661 78.6797328,17.3020569 78.6797328,16.2313328 M82.9553559,21.9329389 L79.407121,21.9329389 C79.3772411,21.9329389 79.348295,21.9190768 79.330087,21.8956547 C79.1022529,21.6007276 78.9747966,21.2102001 78.9472511,20.7231162 C78.9425824,20.6423339 78.8534096,20.6031377 78.7955174,20.6590639 C77.649811,21.7579902 76.208574,22.3076923 74.4704057,22.3076923 C73.0408406,22.3076923 71.9166103,21.8794026 71.0977151,21.0228233 C70.347917,20.2020942 69.9734848,19.2919786 69.9734848,18.2924768 C69.9734848,17.0257718 70.3171034,16.043956 71.006208,15.3479853 C71.6948457,14.6520147 72.7621174,14.1883529 74.2089568,13.956044 L75.6992155,13.6883629 C76.6226903,13.5459184 77.1806036,13.45223 77.3724884,13.4072978 C77.5639063,13.3628437 77.7908066,13.2691553 78.0522555,13.1262327 C78.4705737,12.9120879 78.6797328,12.5287304 78.6797328,11.9752043 C78.6797328,10.9938665 77.9560797,10.5029586 76.5097071,10.5029586 C75.6030397,10.5029586 74.9629568,10.6415791 74.5880577,10.9178642 C74.226698,11.1845892 73.991394,11.6616351 73.881212,12.3494797 C73.8742089,12.3948899 73.8363922,12.430262 73.7915724,12.430262 L70.3899356,12.430262 C70.3348446,12.430262 70.2904916,12.3795938 70.2951604,12.3236676 C70.4184148,10.8236978 70.9814637,9.6812734 71.9866413,8.89687236 C73.0146957,8.09382925 74.4965506,7.69230769 76.4312724,7.69230769 C78.4005428,7.69230769 79.877729,8.03599102 80.8628311,8.72287968 C81.8474663,9.40976835 82.3400173,10.4671084 82.3400173,11.8949 L82.3400173,19.7647225 C82.3400173,20.6007477 82.5659838,21.2704283 83.0188506,21.7728082 C83.0748754,21.8349485 83.0370587,21.9329389 82.9553559,21.9329389" id="Fill-3" fill="#CD1422"></path>
                <path d="M86.8901515,2.40292271 L86.8901515,21.4427502 C86.8901515,21.495656 86.847422,21.5384615 86.7950903,21.5384615 L83.1409958,21.5384615 C83.0881841,21.5384615 83.0454545,21.495656 83.0454545,21.4427502 L83.0454545,2.40292271 C83.0454545,2.35049789 83.0881841,2.30769231 83.1409958,2.30769231 L86.7950903,2.30769231 C86.847422,2.30769231 86.8901515,2.35049789 86.8901515,2.40292271" id="Fill-5" fill="#CD1422"></path>
                <path d="M92.2727273,2.40292271 L92.2727273,21.4427502 C92.2727273,21.495656 92.2299977,21.5384615 92.1776661,21.5384615 L88.5230915,21.5384615 C88.4707598,21.5384615 88.4280303,21.495656 88.4280303,21.4427502 L88.4280303,2.40292271 C88.4280303,2.35049789 88.4707598,2.30769231 88.5230915,2.30769231 L92.1776661,2.30769231 C92.2299977,2.30769231 92.2727273,2.35049789 92.2727273,2.40292271" id="Fill-7" fill="#CD1422"></path>
                <path d="M100.346591,10.4761905 C99.3078261,10.4761905 98.4666472,10.8910961 97.822095,11.7209073 C97.1775429,12.5507185 96.8552668,13.6439087 96.8552668,15 C96.8552668,16.3560913 97.1775429,17.4540615 97.822095,18.2924768 C98.4666472,19.13137 99.3078261,19.5505776 100.346591,19.5505776 C101.367132,19.5505776 102.203995,19.13137 102.857659,18.2924768 C103.510843,17.4540615 103.837915,16.3742553 103.837915,15.0535362 C103.837915,13.6615948 103.519955,12.5507185 102.884515,11.7209073 C102.248595,10.8910961 101.402621,10.4761905 100.346591,10.4761905 M100.319735,7.69230769 C102.593411,7.69230769 104.383674,8.34812623 105.691002,9.65976331 C106.997851,10.9714004 107.651515,12.7873294 107.651515,15.1070724 C107.651515,17.319743 106.984423,19.0730538 105.650718,20.3670048 C104.316533,21.6609558 102.548811,22.3076923 100.346591,22.3076923 C98.1084028,22.3076923 96.3315682,21.6566538 95.0156076,20.3536207 C93.699647,19.0510657 93.0416667,17.2666848 93.0416667,15 C93.0416667,12.7514793 93.699647,10.9714004 95.0156076,9.65976331 C96.3315682,8.34812623 98.0992908,7.69230769 100.319735,7.69230769" id="Fill-9" fill="#CD1422"></path>
                <path d="M107.745739,7.19831957 L111.349432,7.19831957 C111.401042,7.19831957 111.443182,7.24206349 111.443182,7.29563751 L111.443182,8.77555825 C111.443182,8.86943565 111.556345,8.905807 111.611742,8.83109828 C112.101799,8.1680584 112.655303,7.69228182 113.272727,7.40475156 C113.962121,7.08429047 114.810606,6.92307692 115.818182,6.92307692 C117.373106,6.92307692 118.580019,7.34527949 119.4375,8.1891931 C120.294508,9.03310672 120.723485,10.2259887 120.723485,11.7673475 L120.723485,21.4406521 C120.723485,21.4947176 120.681345,21.5384615 120.629735,21.5384615 L117.026042,21.5384615 C116.973958,21.5384615 116.931818,21.4947176 116.931818,21.4406521 L116.931818,12.5655512 C116.931818,10.8226754 116.118845,9.95074605 114.492424,9.95074605 C113.572917,9.95074605 112.835227,10.207803 112.278409,10.7214255 C111.721591,11.2355394 111.443182,11.923646 111.443182,12.7857453 L111.443182,21.4406521 C111.443182,21.4947176 111.401042,21.5384615 111.349432,21.5384615 L107.745739,21.5384615 C107.693655,21.5384615 107.651515,21.4947176 107.651515,21.4406521 L107.651515,7.29563751 C107.651515,7.24206349 107.693655,7.19831957 107.745739,7.19831957" id="Fill-11" fill="#CD1422"></path>
                <path d="M126.106061,7.60115585 L126.106061,21.4427502 C126.106061,21.495656 126.063331,21.5384615 126.010999,21.5384615 L122.356905,21.5384615 C122.304093,21.5384615 122.261364,21.495656 122.261364,21.4427502 L122.261364,7.60115585 C122.261364,7.54873103 122.304093,7.50592545 122.356905,7.50592545 L126.010999,7.50592545 C126.063331,7.50592545 126.106061,7.54873103 126.106061,7.60115585 M126.106061,2.40292271 L126.106061,5.4979107 C126.106061,5.55081648 126.063331,5.59362206 126.010999,5.59362206 L122.356905,5.59362206 C122.304093,5.59362206 122.261364,5.55081648 122.261364,5.4979107 L122.261364,2.40292271 C122.261364,2.35049789 122.304093,2.30769231 122.356905,2.30769231 L126.010999,2.30769231 C126.063331,2.30769231 126.106061,2.35049789 126.106061,2.40292271" id="Fill-13" fill="#CD1422"></path>
                <path d="M130.120713,13.5384615 L135.82653,13.5384615 C135.883751,13.5384615 135.929432,13.485306 135.9227,13.4283194 C135.82701,12.6056054 135.625052,11.962471 135.315381,11.5003529 C134.722969,10.7140337 133.92427,10.3203952 132.918804,10.3203952 C131.260818,10.3203952 130.295744,11.3562103 130.024542,13.4278405 C130.017329,13.4848271 130.062529,13.5384615 130.120713,13.5384615 M139.893114,16.0056457 L130.058202,16.0056457 C130.003384,16.0056457 129.959146,16.0544914 129.962031,16.1095625 C130.022138,17.2516887 130.208709,18.0485432 130.522226,18.4996471 C131.096366,19.3223611 131.93161,19.7332392 133.026515,19.7332392 C133.726639,19.7332392 134.336843,19.5771247 134.857608,19.2639379 C135.361063,18.9617653 135.730359,18.5379575 135.965016,17.9929932 C135.979441,17.9589928 136.012139,17.9364855 136.049646,17.9364855 L139.625278,17.9364855 C139.690674,17.9364855 139.73876,18.0025708 139.718564,18.0643462 C139.293489,19.3798266 138.481326,20.4098952 137.281114,21.1545519 C136.042433,21.9236314 134.579194,22.3076923 132.891876,22.3076923 C130.881424,22.3076923 129.247482,21.6554592 127.991009,20.3500353 C126.734537,19.0455691 126.106061,17.3292671 126.106061,15.2011291 C126.106061,12.8948483 126.734537,11.0669674 127.991009,9.71700776 C129.247482,8.36752697 130.908352,7.69230769 132.972659,7.69230769 C134.462346,7.69230769 135.795755,8.05912894 136.971444,8.79181369 C138.147132,9.5254562 138.941503,10.4726787 139.354557,11.634439 C139.749339,12.7253251 139.94697,13.9675371 139.94697,15.3620325 C139.94697,15.5765702 139.928697,15.791108 139.893114,16.0056457" id="Fill-15" fill="#CD1422"></path>
                <path d="M13.3873322,5.47811356 C13.4036218,5.48768901 13.4194322,5.4967857 13.4352427,5.50683993 C13.4807576,5.53604508 13.5392084,5.52311821 13.5727457,5.48002865 C13.8913503,5.06876269 14.4375295,4.92800345 14.7259505,5.09174379 C15.3118954,5.42544853 15.1657685,6.03923544 14.9290909,6.35953454 C14.9458595,6.37294018 14.9741267,6.39783638 14.9966446,6.42512644 C15.4781447,6.20872107 16.1028972,6.2522894 16.5791272,6.46390704 C17.1650721,6.7248383 17.5296707,7.08726941 17.8257574,7.51241979 C17.883729,7.59572628 18.0126082,7.55503058 18.0126082,7.45305194 C18.0126082,6.51752961 17.5598543,5.49008288 16.5254674,4.96486896 C15.5021,4.44492155 14.1380891,4.40901358 13.3552322,5.32442744 C13.3135501,5.37326228 13.331277,5.44747209 13.3873322,5.47811356 M12.0223632,6.83543485 C12.2849125,6.68462137 12.5656678,6.59269697 12.8344455,6.4983787 C12.8928962,6.47779146 12.919247,6.40932693 12.8900216,6.35474681 C12.822947,6.22882953 12.7712037,6.09908206 12.7611425,5.96167423 C12.7573096,5.90278516 12.7036499,5.86017436 12.6451992,5.86927105 C12.5158409,5.88937951 12.3730677,5.91331816 12.223108,5.9497049 C11.8498855,6.03971422 11.4833705,6.24798045 11.3722182,6.45481036 C11.2548376,6.67265205 11.1844092,6.9565644 11.1077524,7.2237197 C11.0809226,7.31708043 11.1868047,7.39176901 11.2648988,7.33383748 C11.5049302,7.15812781 11.755981,6.98959973 12.0223632,6.83543485 M12.1359109,13.4630887 C10.9937255,13.3644615 10.3694522,13.0125633 9.9823357,12.5649106 C9.93298792,12.5079367 9.96269241,12.4179274 10.0364745,12.4011703 C10.6176284,12.2747742 11.637163,11.8606356 12.1047691,11.5101739 C12.3347394,11.336858 12.5460245,11.1400824 12.736229,10.9241558 C12.7985126,10.8532974 12.7386246,10.7455735 12.6451992,10.7551489 C12.1847796,10.8044625 11.646266,10.6450311 11.4364182,10.2213171 C11.4043182,10.1566827 11.3228704,10.1404045 11.2716062,10.1906756 C10.9074867,10.548319 10.1773313,10.9136228 9.34464745,11.1290706 C9.22391309,11.1606696 8.98483989,11.2712662 8.88518613,11.3493061 C7.61460068,12.3456326 6.69567803,14.2779602 6.63195712,15.5486236 C6.63099891,15.5629868 6.62764518,15.5754349 6.62093771,15.587883 C6.31095702,16.1662407 5.91186288,17.2219351 6.27981522,18.8497631 C6.75317059,20.9420008 7.87810822,21.8890137 9.07730708,22.7685196 C9.58276245,23.1390898 10.1457104,23.419172 10.7445911,23.6619099 C10.8404121,23.7011693 10.9252136,23.5867425 10.8605345,23.5058299 C9.88651477,22.2873528 9.27853102,21.1426067 9.27853102,20.1089359 C9.27853102,18.5859592 10.5979851,17.8812054 11.6467451,17.7730027 C11.6730959,17.7701301 11.696572,17.7567244 11.7128616,17.7356584 C11.8786318,17.5206894 12.1129139,17.3315741 12.2940155,17.2090082 C12.3371349,17.179803 12.3486334,17.1228291 12.3227617,17.0778244 C11.7593347,16.0905946 11.6299765,14.82041 12.2178378,13.6081569 C12.2494587,13.5440013 12.2072975,13.4693127 12.1359109,13.4630887 M18.7422845,0.213047512 C18.1707127,0.267148854 17.5430856,0.515153238 17.0582318,1.02504642 C17.0012183,1.08489304 16.8986899,1.05425157 16.8847959,0.972860171 C16.839281,0.699959594 16.8680272,0.344231298 16.8541332,0.095748141 C16.8498213,0.0196232432 16.7650197,-0.0249026404 16.6998615,0.0148355138 C16.1244569,0.365297307 15.5562388,0.820131602 15.1394178,1.63931211 C15.0986939,1.71926719 14.9779595,1.71112805 14.952567,1.62542769 C14.8816595,1.38556245 14.8955535,1.09829868 14.8835759,0.888596133 C14.8783058,0.801938231 14.7748192,0.760763758 14.7110983,0.820131602 C14.256428,1.24432443 13.8496682,1.89497686 13.6374248,2.53030855 C13.6081994,2.61744523 13.486986,2.6231905 13.4486576,2.53940524 C13.3686471,2.36465311 13.3284023,2.1472902 13.2670769,1.98498617 C13.2431217,1.9208306 13.1597575,1.90072213 13.1075351,1.94524802 C12.1167468,2.78453698 11.6659093,4.19643839 11.8470109,5.37661369 C11.8556347,5.43071503 11.9059407,5.46805932 11.9605587,5.46231405 C12.2192752,5.43406645 12.5388379,5.30384021 12.8660664,5.3340029 C12.9019992,5.33735431 12.9369739,5.32251235 12.9580545,5.2933072 C13.9938786,3.86560629 15.8585538,3.7521371 17.141596,4.57802042 C17.1617184,4.59094729 17.1871109,4.59669257 17.2110661,4.59334116 C18.2679709,4.44731541 18.9641099,3.91108972 19.2199518,3.19005767 C19.5083728,2.3790163 19.3435608,1.06191194 18.8390636,0.260924806 C18.8184621,0.227889473 18.7806129,0.209696101 18.7422845,0.213047512 M14.4346549,6.45672545 C14.3862653,6.41746607 14.3872235,6.34804399 14.4313012,6.30447565 C14.4787325,6.25659836 14.5194564,6.19770929 14.5491609,6.12972353 C14.6569594,5.88411301 14.5822191,5.61408507 14.3829116,5.52742717 C14.183125,5.44029049 13.9344697,5.56908041 13.8271502,5.81469093 C13.7998413,5.87693142 13.784989,5.94060822 13.7806771,6.00236993 C13.7763652,6.06365286 13.7164771,6.10626366 13.656589,6.09094292 C13.601492,6.07705851 13.5502278,6.08663397 13.5061501,6.14839567 C13.4563233,6.21925407 13.4606352,6.34660767 13.5483114,6.49454851 C13.6091576,6.59700592 13.7035413,6.70903879 13.8180473,6.79521792 C13.9167428,6.8699065 14.0135219,6.94698894 14.0988026,7.0326893 C14.1428802,7.07625764 14.215225,7.07051236 14.2516369,7.01976243 C14.3330847,6.90725079 14.4356131,6.79809056 14.5376624,6.71047511 C14.5793445,6.67504591 14.5846146,6.61136911 14.5491609,6.56971586 C14.5137072,6.52710507 14.4734624,6.48880324 14.4346549,6.45672545 M13.7365995,8.21477969 C13.7289338,8.12716424 13.6220935,8.09125627 13.5598099,8.15349676 C13.2867202,8.4287912 12.9633246,8.57098676 12.5867484,8.75914453 C12.163699,8.96980462 11.8455735,9.23312974 11.8455735,9.65875889 C11.8455735,9.93070192 12.076502,10.1849303 12.4492454,10.1849303 C12.8215097,10.1849303 13.1415515,10.0374683 13.4132039,9.62332969 C13.706895,9.17519821 13.7806771,8.73089692 13.7365995,8.21477969 M10.4394015,9.22451183 C10.4394015,9.55534393 10.6578732,9.68892158 10.8830524,9.68892158 C11.2102808,9.68892158 11.3511376,9.47826149 11.5724839,9.02438474 C11.7214855,8.7189276 11.902587,8.49007413 12.1359109,8.30718287 C12.2159214,8.24446362 12.168011,8.11806756 12.0664408,8.12429161 C11.4574988,8.16115712 10.9793524,8.36798703 10.6641016,8.69738282 C10.5222866,8.84580243 10.4489836,9.0497597 10.4394015,9.22451183 M11.8882139,7.37022422 C11.8058079,7.41379256 11.820181,7.53731598 11.9107318,7.55981831 C12.2072975,7.6325918 12.5695006,7.65270026 12.8124067,7.62588897 C12.9800933,7.60721683 13.2924695,7.52486788 13.4754875,7.47746936 C13.5368128,7.46119108 13.569392,7.3936841 13.5425621,7.33623134 C13.5071084,7.26106399 13.4635098,7.183024 13.4074546,7.10594156 C13.3399008,7.01401715 13.2761799,6.92927434 13.2186874,6.84740417 C13.1913784,6.80862356 13.1425097,6.79330283 13.097953,6.81005988 C12.8200723,6.91682625 12.5450663,7.04034967 12.2777259,7.17105468 C12.172802,7.22276216 12.0281124,7.29601442 11.8882139,7.37022422 M34.3802592,14.8869594 C33.5614694,14.2645546 32.547684,13.8169019 31.0303597,13.5100084 C30.9580149,13.4951665 30.9254358,13.4113812 30.9690343,13.3515346 C31.2502687,12.9656436 31.471615,12.5428871 31.6105554,12.0655505 C31.6306778,11.9961284 31.5707897,11.9271851 31.498924,11.9381969 C30.2575639,12.1258759 28.6846635,12.6242785 27.6066781,13.2337564 C26.6815271,13.7565765 25.9307702,14.8409972 25.7678746,16.2945519 C25.7587716,16.3778584 25.8459686,16.4357899 25.9183134,16.3936579 C26.8223839,15.8708378 27.8102976,15.4926072 28.8207292,15.2809895 C28.8341441,15.2781169 28.8466009,15.2728504 28.8576203,15.2647113 C29.3276219,14.9348367 29.7731892,14.5992169 30.1679714,14.236307 C30.1861774,14.2200287 30.2086953,14.210932 30.2331296,14.2099745 C31.7988435,14.1558731 33.1216513,14.560915 34.2801263,15.0597964 C34.3898413,15.1067162 34.475601,14.9587754 34.3802592,14.8869594 M15.5471358,14.2190712 C15.0340148,14.7572119 14.1122175,15.5907556 13.7538472,16.2749222 C13.7145607,16.3496108 13.7825935,16.4353111 13.8649995,16.4171177 C14.4921474,16.2768373 15.2630268,16.3208844 15.872927,16.4970728 C15.9558121,16.5210115 16.0305524,16.4381837 15.9931822,16.3606225 C15.7114687,15.7746044 15.7608165,14.9860654 15.7200926,14.2832267 C15.7148224,14.1956113 15.607503,14.1553944 15.5471358,14.2190712 M12.7582678,16.3476957 C12.7898887,16.4300446 12.9077485,16.4314809 12.9427231,16.3500895 C13.368168,15.3724352 14.0714936,14.7102922 14.741761,14.0304346 C15.2108044,13.5550131 15.5706119,13.1384806 15.8700523,12.6343327 C15.9146091,12.5596441 16.0267195,12.5744861 16.0521121,12.6577926 C16.2260271,13.2227447 16.3443659,13.8116354 16.3347838,14.4316463 C16.3271181,14.9482424 16.3194525,15.353763 16.3793405,15.6903404 C16.3994629,15.8014157 16.5609212,15.7975855 16.5776898,15.6860315 C16.7458556,14.5403278 17.2786199,13.6301804 17.572311,12.8655801 C18.0231485,11.6906713 18.1625679,10.8762785 18.1625679,10.1552464 C18.1625679,7.98018095 16.9207287,6.86320368 15.7670448,6.86320368 C14.9626282,6.86320368 14.572637,7.40086569 14.458131,8.06444499 C14.3584773,8.6428027 14.3474579,9.36335598 13.8683532,10.3089325 C13.5267516,10.9840024 12.8799604,11.8994163 11.5518824,12.52613 C11.4642063,12.5677833 11.4800167,12.6980095 11.5748794,12.7166817 C12.3261155,12.8631862 12.983447,12.8109999 13.5483114,12.7200331 C13.6489233,12.7037548 13.7054577,12.8296721 13.6273636,12.8957427 C12.910144,13.4994754 12.6485529,14.1946537 12.5517738,14.9669145 C12.4966767,15.4102582 12.5992051,15.9345146 12.7582678,16.3476957 M34.7333593,36.8568922 C34.6868861,36.9617435 34.5273443,36.9210478 34.5407592,36.8070998 C34.7175488,35.3248188 35.4577655,33.83775 36.2626612,32.4900042 C37.466172,30.4758064 38.1814752,28.2413731 38.3232902,26.0945552 C38.5915887,22.042221 35.4160834,18.0066439 31.819445,17.2425223 C31.7054181,17.2181049 31.7130838,17.0524494 31.8295062,17.042874 C33.7847321,16.8853577 36.0207134,17.4354678 37.5016257,18.5160583 C39.14208,19.7125119 40.7537879,22.4199729 40.7537879,25.8005886 C40.7537879,29.0868861 39.7869548,31.0129896 39.0400307,32.9759587 C38.2279483,35.111286 37.6889556,37.3701368 37.7100363,39.5116881 C37.7109945,39.6189333 37.5648676,39.6524474 37.5193526,39.5557353 C36.6804404,37.772306 36.7968629,35.8658322 36.9549674,34.5606971 C36.9650286,34.4764331 36.8735196,34.4194591 36.8011748,34.463985 C35.9660954,34.9801022 35.2694773,35.6551721 34.7333593,36.8568922 M37.667875,26.1826494 C37.7886094,24.3561307 37.1854167,22.5506779 36.2267284,21.0545125 C35.382546,19.7369293 33.6601649,18.1880988 31.6004942,17.8194437 C31.489821,17.799814 31.4361613,17.9539789 31.535336,18.0066439 C32.4667153,18.5050465 33.2371156,19.2806587 33.7205321,20.1204264 C33.7679635,20.2032542 33.6845993,20.2990088 33.5954858,20.2640583 C33.1173394,20.0744642 32.6353602,19.9614738 32.1361331,19.8954032 C32.0273764,19.88104 31.9765913,20.0256294 32.0709749,20.0811671 C33.9126531,21.1670241 34.8267847,23.1548894 34.8267847,24.9881109 C34.8267847,27.8052109 32.8246065,29.0351786 31.7653062,29.3516475 C31.155406,29.5335813 30.4999909,29.5675741 29.8690101,29.4627229 C29.7660026,29.445487 29.7089892,29.5828949 29.7947489,29.6427415 C30.7534372,30.3158962 32.3220257,30.3685613 33.5437425,29.871595 C34.333786,29.5498595 35.0385489,28.9418179 35.4663893,28.296432 C35.5190908,28.2169557 35.6422207,28.2461608 35.6513237,28.3404791 C35.7227103,29.0730017 35.6134745,29.7858946 35.4524953,30.3699976 C35.4256654,30.4671885 35.5435252,30.5370893 35.6182655,30.4691036 C36.5568314,29.6125788 37.5385168,28.1408308 37.667875,26.1826494 M34.5939398,30.0161844 C33.1149439,30.9090959 31.6340315,30.9095747 30.5292163,30.6065114 C30.4942416,30.596936 30.4578297,30.6065114 30.4324371,30.6328439 C29.8450549,31.2404068 29.0914233,31.8972833 27.9003692,32.1175188 C27.7987991,32.136191 27.7901752,32.2807804 27.8893498,32.3123794 C28.4920634,32.502931 29.0411173,32.4531387 29.5173473,32.2592356 C29.6016697,32.224764 29.6840757,32.3166884 29.6438309,32.3985585 C29.2476114,33.2005032 28.6223799,33.6850214 28.0297275,34.0670822 C27.940614,34.124535 27.9890036,34.2629004 28.0948857,34.2528461 C29.0008725,34.166667 29.832119,33.7352926 30.4127938,33.2909913 C30.4856177,33.2354536 30.5867088,33.2967366 30.5723357,33.3872247 C30.2982878,35.0758568 30.2791237,36.5284539 30.5014282,37.7818815 C30.5220297,37.8996596 30.6935491,37.8896054 30.7007357,37.770391 C30.8272193,35.7485328 31.6244494,34.4443553 32.4489885,33.508833 C32.5036064,33.4465925 32.6051766,33.4762764 32.6224243,33.5576678 C32.7503453,34.1580491 32.973608,34.651664 33.211723,35.0619724 C33.2610708,35.1476728 33.390429,35.1189464 33.399532,35.0203192 C33.6002769,32.8189212 34.2154472,31.2509398 34.7376712,30.1430592 C34.7803115,30.0525711 34.6796996,29.9644769 34.5939398,30.0161844 M27.1141586,31.4941565 C26.1875702,30.4059056 25.9278955,29.335848 25.8392612,28.2600452 C25.8325537,28.1757812 25.9255,28.1197648 25.9954493,28.1676421 C26.5540853,28.5530543 27.2157287,28.844627 27.9248036,28.8709595 C28.0196663,28.8747897 28.064223,28.7565328 27.9928364,28.6938135 C26.516236,27.4054355 25.3141625,25.7440934 24.3554742,23.5312049 C23.571659,21.7219219 22.6077005,20.152983 20.883403,18.8593385 C20.0813819,18.2570422 19.0211234,17.6595335 17.8271947,17.2994963 C17.7217917,17.2678973 17.6518424,17.4048263 17.7366439,17.4742484 C19.7987102,19.1571353 19.6540206,21.3920474 19.0062711,22.6358995 C18.9636308,22.7172909 19.042204,22.8096941 19.1284428,22.778095 C19.5912579,22.6086094 19.9295057,22.379756 20.1561222,22.1820227 C20.2107401,22.1341454 20.2964999,22.1580841 20.3185387,22.2275062 C20.9341881,24.1808998 20.8014761,26.0361449 20.4541253,27.1009359 C20.4258581,27.1866363 20.5202417,27.2627612 20.5997731,27.2191929 C21.6494913,26.6365262 22.380605,25.6287091 22.6781289,24.7156891 C22.7083125,24.623286 22.8352752,24.6208921 22.8688126,24.711859 C23.7091621,27.0003936 23.4173873,28.9973556 22.605305,30.7357801 C22.5626647,30.8272257 22.6656722,30.9172351 22.7504737,30.8626549 C23.067641,30.6572614 23.4164291,30.3924999 23.718265,30.1172055 C23.7839024,30.0568801 23.8902636,30.1061937 23.8854726,30.1952455 C23.7949218,31.8565876 24.2692354,33.1832674 24.9989117,34.3136503 C25.0544878,34.3988719 25.1876789,34.3567399 25.1843252,34.25524 C25.1368938,32.9070154 25.2902073,31.5961351 25.4411252,30.6045963 C25.4550193,30.5102781 25.5829402,30.4863394 25.6289343,30.5701247 C25.9954493,31.2365766 26.4951554,31.5353309 27.0140257,31.657418 C27.1088884,31.6799204 27.1774004,31.568845 27.1141586,31.4941565 M22.9770902,34.1523038 C23.1462141,33.5466561 22.9689454,32.9989398 22.9770902,32.4497872 C22.9823604,32.1218278 23.0911171,31.7464698 23.2137679,31.3826024 C23.2444306,31.2921143 23.1428604,31.2145531 23.063329,31.2681756 C22.532002,31.6253402 21.9024585,31.9513846 21.3074106,32.203698 C21.2125479,32.2439149 21.1253509,32.1299669 21.1890718,32.0495331 C21.7433958,31.3462156 22.2689736,30.4288867 22.5219408,29.5043761 C22.5396677,29.4406993 22.490799,29.3779801 22.4242035,29.3779801 C21.1838016,29.3798951 19.3363742,29.2386571 17.8808544,28.6349244 C17.8650439,28.6282216 17.8487544,28.6258278 17.8315066,28.6282216 C17.1794452,28.7167946 16.1532032,28.7910044 15.0953402,28.635882 C15.0172461,28.6243914 14.9549625,28.7024314 14.9870625,28.7742474 C15.5274925,29.9836278 16.532654,30.946919 18.1386127,31.9403728 C18.8721219,32.3942496 19.7321146,33.0104304 19.9453162,33.930632 C19.9587311,33.989521 20.0190983,34.025429 20.0765909,34.0053205 C20.4042984,33.890415 20.548988,33.9674975 20.6912821,34.2351315 C20.8182448,34.474518 20.979224,34.7177347 21.1555345,34.7196498 C21.2992658,34.7215649 21.3476554,34.6813479 21.565648,34.6363433 C21.6993182,34.6128834 21.8296346,34.6215013 21.9206645,34.6626758 C22.0854765,34.7368856 22.1985452,34.7646544 22.293887,34.7493337 C22.6637558,34.6904446 22.8764782,34.5128199 22.9770902,34.1523038 M16.1915315,31.2787086 C15.543303,30.7199806 14.67804,29.8969699 14.2214533,28.536776 C14.2104339,28.5032619 14.1821668,28.4778869 14.1476712,28.4707053 C13.4754875,28.334255 12.804741,28.1365218 12.1771139,27.8564396 C12.1076438,27.8257982 12.0285915,27.8779844 12.035299,27.9536305 C12.0645244,28.28159 12.2288572,28.6708324 12.2657483,29.0514569 C12.2959319,29.3621805 12.1651363,29.3813315 12.0290706,29.4062277 C11.8652168,29.4359116 12.0726691,29.9438897 12.9216425,30.4691036 C12.9580545,30.4920847 12.9781769,30.5351743 12.9676366,30.5768275 C12.8833141,30.9210652 12.8445067,31.5726752 13.4357218,31.954736 C13.8103816,32.1974739 14.3340429,32.1893348 15.0550954,31.813498 C15.415382,31.6253402 15.7315911,31.526713 16.1421837,31.4525032 C16.2250688,31.4371825 16.2552524,31.3332887 16.1915315,31.2787086 M16.8435929,27.9076683 C16.5173227,27.644822 16.2245897,27.322129 16.0458837,27.0985421 C16.0348643,27.0846577 16.0209703,27.0746034 16.0042016,27.0683794 C14.599946,26.5474744 13.4084128,25.8618716 12.126808,24.8329885 C12.1167468,24.8253281 12.1057274,24.8191041 12.0932706,24.8157527 C10.9779151,24.4863569 9.88843119,24.0023175 8.51531736,22.9533259 C8.435786,22.8925218 8.32607104,22.9729556 8.35912926,23.0672739 C9.49652362,26.320536 12.685923,28.1652482 16.784663,28.0872082 C16.8790466,28.0852931 16.9168959,27.9665574 16.8435929,27.9076683 M21.6629062,27.3551644 C21.9891765,27.3599521 22.3949781,27.3604309 22.7111871,27.332662 C22.7624513,27.3283531 22.8012588,27.2852635 22.8017379,27.2330773 C22.8031752,26.9860304 22.770117,26.6111512 22.7025633,26.2793616 C22.6853155,26.1946188 22.5751214,26.1706801 22.5238572,26.240581 C22.2900542,26.5575287 22.0064242,26.8816579 21.6078092,27.1732307 C21.5292361,27.2306834 21.565648,27.3537281 21.6629062,27.3551644 M15.1681641,26.0457204 C16.8431138,26.8347382 18.3283381,27.1296623 19.7536743,27.269464 C19.8006266,27.2742517 19.8447042,27.2464829 19.8600356,27.2024358 C19.9127371,27.0506648 19.9592102,26.8955423 19.999455,26.7389836 C19.9807699,26.6963728 19.967355,26.6662101 19.9486699,26.6240781 C18.3345665,25.7460085 16.9499541,25.6818529 16.3985047,25.7718623 C16.1072091,25.8192608 15.6817642,25.871447 15.2141581,25.8542112 C15.1054014,25.850381 15.0694685,25.9992794 15.1681641,26.0457204 M18.094056,25.3352213 C18.8740383,25.4755018 19.4599832,25.7053128 20.0119117,25.9734257 C20.0741953,26.0035884 20.146061,25.964329 20.1561222,25.8963432 C20.1882222,25.6737138 20.196367,25.4577872 20.1958879,25.2116979 C20.1954088,25.1575966 20.1537267,25.1130707 20.0995879,25.1111556 C19.7373848,25.0977499 19.0177697,25.0278491 18.5132725,24.8957078 C18.4830889,24.901453 18.4596128,24.9067195 18.4289501,24.9124648 C18.323068,24.9933774 18.1898769,25.0757264 18.0600395,25.1494574 C17.9790708,25.1958984 18.0015888,25.3184643 18.094056,25.3352213 M22.6800453,27.9440551 C21.5445674,28.0115621 19.6458758,28.0034229 17.69592,27.5725273 C17.5871633,27.5485886 17.5253588,27.6936568 17.6187842,27.7549398 C19.0244771,28.6751414 21.0683374,28.8149431 22.6201573,28.7493512 C22.6666304,28.7479149 22.7044797,28.7153583 22.7140618,28.6703536 C22.7509528,28.5056558 22.7787409,28.2586089 22.7859275,28.0489064 C22.788323,27.9890597 22.7399334,27.9407037 22.6800453,27.9440551 M19.1921637,24.4786965 C19.5045399,24.5088592 19.8317684,24.5217861 20.0995879,24.505029 C20.1537267,24.5016776 20.1944506,24.4542791 20.1925342,24.4001778 C20.1795983,24.0434919 20.1340834,23.7117023 20.0650923,23.3554952 C20.0473655,23.2650071 19.9266311,23.2425048 19.8796789,23.3224599 C19.6717475,23.6786669 19.4187802,24.0104566 19.1313174,24.3072958 C19.0719085,24.3681 19.1073622,24.4705574 19.1921637,24.4786965 M15.4834149,25.3663416 C17.1679467,25.3663416 18.3685829,24.6132317 19.1701249,23.5790822 C19.2280966,23.5043936 19.1610219,23.3985848 19.0685547,23.4186932 C18.7336606,23.4905092 18.2358709,23.5489195 17.8123424,23.5297686 C17.718917,23.5254596 17.682026,23.4095966 17.7543708,23.3507075 C18.4313456,22.7967672 18.9075756,21.8679477 18.9075756,20.8443311 C18.9075756,18.6544237 16.7784347,16.8724308 14.6756445,16.8724308 C13.2541411,16.8724308 12.4506827,17.7442763 12.0151766,18.3331671 C11.9955333,18.3590208 11.9653497,18.3729052 11.9327706,18.3719477 C10.7445911,18.337476 9.80506699,19.024994 9.80506699,20.1089359 C9.80506699,21.6070164 12.0587751,25.3663416 15.4834149,25.3663416 M33.0143319,11.1807781 C34.8545727,11.1807781 36.582224,11.6528482 37.8058572,12.9388323 C38.776044,13.9581399 39.2105919,15.5136732 39.1430382,16.7383744 C39.1368098,16.8518436 39.2939561,16.8887091 39.3365964,16.783379 C40.2253355,14.6035258 39.6523264,12.6060851 38.6256052,11.1994502 C37.1720018,9.20871232 34.6528697,8.17504154 31.9229316,8.17504154 C27.8155677,8.17504154 24.798646,10.4180928 23.310547,12.4160123 C21.9934884,14.183642 21.4166465,16.4702615 21.6514077,18.6625628 C21.6538033,18.6884166 21.6667391,18.7123552 21.6868615,18.7291123 C21.9173108,18.9230153 22.1405735,19.126015 22.3552124,19.3385902 C22.4141423,19.3970005 22.5123587,19.3639652 22.5248154,19.282095 C23.2535336,14.3741936 27.7887379,11.1807781 33.0143319,11.1807781 M29.8110384,7.76233926 C31.3973538,7.4856085 32.6952482,7.490875 34.0319501,7.75707276 C34.0511143,7.76090294 34.0707576,7.75898785 34.0889636,7.75180626 C35.1698236,7.30606865 36.5050881,6.66977941 37.5974467,5.64759918 C37.6788945,5.57147428 37.5964885,5.4383754 37.4925228,5.48002865 C36.6239061,5.83001167 35.6815073,6.07610096 34.4454174,6.01721189 C34.3515129,6.01290293 34.3122263,5.89560356 34.3864875,5.83767204 C35.0169892,5.34692977 36.4269941,4.12222858 37.0191674,1.87774103 C37.0464764,1.77528362 36.9152017,1.70729786 36.8452524,1.78725295 C34.4506875,4.52631295 31.9454495,6.33511712 29.744922,7.57609659 C29.6467056,7.63115548 29.6998862,7.78149018 29.8110384,7.76233926 M25.2049267,15.0492634 C24.3525996,15.9943612 23.8011501,17.1415012 23.4796709,18.2455516 C23.4490082,18.3513604 23.5874695,18.4203037 23.6564605,18.3346034 C24.0713651,17.8180074 24.5418459,17.3377981 25.0746102,16.943768 C25.1004819,16.9246171 25.1153341,16.8944544 25.1143759,16.8618978 C25.0956908,16.3338112 25.1752222,15.7444418 25.3750088,15.1464543 C25.4099834,15.0425606 25.2782297,14.9673933 25.2049267,15.0492634 M32.5663691,13.3836124 C32.7790915,12.9287781 32.9362379,12.3939887 32.9937304,11.9348455 C33.000917,11.8745201 32.9520483,11.821855 32.8916811,11.8223338 C32.689499,11.8252064 32.4858795,11.8343031 32.281781,11.8496239 C32.2381824,11.8524965 32.2022496,11.8840955 32.1921884,11.9267063 C32.0939719,12.3403661 31.9411376,12.7425354 31.7384763,13.1164571 C31.7068554,13.1748674 31.7379972,13.2457258 31.8026763,13.2605677 C32.0187525,13.3122752 32.2329123,13.3702067 32.4456347,13.4357986 C32.4935452,13.4501618 32.5448094,13.428617 32.5663691,13.3836124 M31.160197,14.6863536 C30.9378925,14.6743842 30.715588,14.6729479 30.4932834,14.681087 C30.4693282,14.6815658 30.4472894,14.6901837 30.4295625,14.7059832 C30.3615297,14.7667874 30.2757699,14.8419548 30.1880938,14.9166433 C30.1152699,14.9788838 30.1622221,15.0980983 30.2575639,15.0933106 C30.459267,15.0832563 30.6748641,15.0799049 30.843988,15.0832563 C30.8626731,15.0837351 30.8799208,15.0794261 30.8962104,15.0703295 C31.0049671,15.0085677 31.1113284,14.9415395 31.2138568,14.8702024 C31.2933881,14.8151435 31.2564971,14.6916201 31.160197,14.6863536 M32.7690303,16.5143086 C33.1321916,16.5119148 33.5384724,16.5281931 33.9696665,16.574634 C34.0841725,16.5870821 34.1253755,16.4252569 34.0185352,16.380731 C32.9108453,15.9206302 31.7102091,15.6903404 30.5066983,15.718588 C28.8489964,15.7578474 27.1553616,16.3022122 25.7381701,17.2511402 C24.6702459,17.9659482 23.7312009,18.9943525 23.131841,20.0979241 C23.1121977,20.1333533 23.1165096,20.1769217 23.1419022,20.2085207 C23.228141,20.3162446 23.3129425,20.4263624 23.3958276,20.5398315 L23.4748799,20.652822 C23.511771,20.7050082 23.5865113,20.7097959 23.6301098,20.6628762 C24.7061788,19.5008943 26.0045523,18.5227611 27.4193482,17.8199225 C29.1105875,16.9796759 30.9604104,16.5281931 32.7690303,16.5143086 M32.0872645,19.2725196 C32.1845227,19.2859252 32.2420153,19.1657532 32.1696705,19.0996825 C31.4673031,18.4581268 30.5910208,18.0047288 29.3415159,18.0047288 C27.5956587,18.0047288 25.5886895,19.402267 23.9429651,21.2560759 C23.9146979,21.2881536 23.9089487,21.3341159 23.9295502,21.3714601 C23.9990203,21.4978562 24.0737607,21.6295188 24.1451473,21.7607025 C24.1772473,21.8191128 24.2553413,21.8301246 24.3032518,21.7841624 C26.4793449,19.6742101 29.1216069,19.1772437 30.6729477,19.1772437 C31.160197,19.1772437 31.6234912,19.2059701 32.0872645,19.2725196 M31.8769376,28.5492241 C31.8371719,28.6344457 31.9224525,28.7254125 32.0082122,28.6861532 C33.1954335,28.1427459 34.1833472,26.9079904 34.1833472,24.9402337 C34.1833472,22.6028641 32.3402317,20.0438228 29.6399981,20.0438228 C27.2128541,20.0438228 25.2954774,21.6716508 24.5576563,22.4271545 C24.5279518,22.4573172 24.5212444,22.5013643 24.5394504,22.5391873 C24.679828,22.8336327 24.8422445,23.1965426 24.982143,23.4900304 C25.0075356,23.543653 25.073652,23.5608888 25.1253953,23.5316837 C25.9068149,23.0849885 26.6005584,23.4919455 26.800345,23.6877636 C27.5764945,24.4475763 27.3259228,25.390759 26.9919869,25.9475719 C26.9488675,26.0203454 27.0049227,26.1127486 27.088766,26.1022156 C27.8050274,26.0117275 28.6889754,25.5300819 29.1249606,24.5730148 C29.1628099,24.4897083 29.2811487,24.4935385 29.3113323,24.5792389 C29.5839429,25.3562873 29.781334,26.179298 29.456501,27.1315774 C29.4349413,27.1947754 29.4785398,27.2637187 29.5456145,27.2665914 C30.5110103,27.3044144 31.2545807,26.9367168 31.8290271,26.2099395 C31.8807704,26.1448264 31.9856943,26.1682862 32.0048585,26.2496776 C32.1826063,26.9884243 32.1644003,27.935916 31.8769376,28.5492241 M26.7050032,24.2101049 C26.4707211,23.8457587 25.8148268,23.5359926 25.2763133,23.9328954 C25.2394222,23.9606642 25.2274446,24.0114141 25.2466088,24.0535462 C25.3893819,24.3709726 25.5752745,24.7152104 25.7290671,24.9847595 C25.7645209,25.047 25.852197,25.0527453 25.8953164,24.9952925 C26.1372642,24.6745147 26.4089166,24.4868357 26.6642793,24.3542156 C26.7169808,24.3264467 26.7375823,24.2603761 26.7050032,24.2101049 M12.3160543,30.8669639 C12.1799886,30.3589858 11.6711795,30.2076936 11.5379884,29.7346659 C11.5264899,29.6934914 11.4929526,29.6623712 11.4507913,29.6580622 C10.9252136,29.6073123 10.4231119,29.5225695 9.84674909,29.3741499 C8.83104731,29.1117823 7.95428586,28.7967497 7.06985874,28.3151041 C6.63195712,28.0766752 6.14518683,27.988581 5.65602101,27.9344796 C5.26698807,27.8913901 4.81327599,27.9110198 4.53779084,27.8808571 C4.26278479,27.8502156 4.0979728,27.9742178 3.90249812,28.0785903 C3.70702344,28.182484 1.86103335,29.2195062 0.883180828,29.2779165 C0.447195627,29.304249 0.0155223682,29.7562107 0.000670125116,30.143538 C-0.0137030134,30.5303865 0.203810482,31.1149683 0.588052385,31.1149683 C0.497022507,30.925853 0.315441858,30.6409831 0.342750821,30.5849666 C0.4131792,30.4504314 2.56100519,29.5259209 3.18623672,29.0356574 C3.21402479,29.0136338 3.24947853,29.0078886 3.28253675,29.0193791 C3.30122183,29.0260819 3.31990691,29.0327848 3.33811288,29.0390088 C3.39033528,29.0572022 3.42003977,29.1122611 3.4023129,29.1644473 C3.24564569,29.6298146 2.48195293,30.4920847 2.34540812,31.0225651 C2.21748718,31.5200102 2.34636633,31.9834624 2.66545,32.1577358 C2.73971122,32.1984315 2.83074109,32.1337971 2.81397243,32.0509694 C2.78857989,31.9298398 2.74737689,31.838873 2.78283063,31.7402457 C2.88152618,31.5473003 3.14647103,31.4539395 3.21977404,31.2097653 C3.42387261,30.5342167 3.37500394,29.6949277 3.97532202,29.2448812 C3.99736083,29.2286029 4.02610711,29.2228576 4.05341607,29.2271666 C4.28146987,29.2649896 4.48940127,29.2764802 4.70308193,29.2740863 C5.09019846,29.2697774 5.44856872,29.1390724 5.64021056,29.1046007 C5.68907923,29.095504 5.73842701,29.1218365 5.75519567,29.1687563 C5.98085394,29.8079182 5.84718376,30.4992663 6.04361665,31.1671545 C6.14135399,31.4984654 6.31670628,31.7684934 6.58740039,31.980111 C6.62908249,32.0126676 6.63866458,32.0591085 6.63435264,32.1132099 C6.62524965,32.2228489 6.77664671,32.266896 6.82407807,32.1682688 C7.22892147,31.3265859 6.6089601,30.2038634 6.46474961,29.1907798 C6.45564662,29.1290181 6.50691081,29.0734805 6.56967352,29.0777894 C7.14028711,29.1151337 7.82684403,29.3305815 8.14161576,29.7657861 C8.28582625,29.9649557 8.31648895,30.289085 8.39075016,30.5849666 C8.43818152,30.7750395 8.39937405,30.9478765 8.38356359,31.1269376 C8.37446061,31.2303526 8.51196363,31.2815813 8.56706066,31.193487 C8.77690848,30.8588248 8.77690848,30.4025541 8.77690848,30.0099603 C8.77690848,29.9084605 8.91920255,29.9055878 8.97477869,29.9084605 C9.41459673,29.9357505 9.84483267,30.0597527 10.2453641,30.2043421 C10.9918091,30.4743701 11.6136869,30.7051386 12.1507632,31.2562063 C12.2096931,31.3170105 12.3127006,31.28206 12.3218035,31.1982748 C12.3337812,31.0910296 12.3414468,30.974209 12.3160543,30.8669639 M20.7708134,38.4042863 C20.5365313,38.3999774 20.2725446,38.4038076 20.0722789,38.3760387 C20.0310759,38.3707722 19.9893938,38.388008 19.9692714,38.4243948 C19.9237565,38.5067437 19.8811162,38.6020196 19.8403923,38.6929864 C19.8092505,38.7614509 19.861952,38.8390122 19.9371714,38.8347032 C20.2299043,38.8193825 20.5532999,38.7413425 20.819203,38.5929229 C20.9083165,38.5431305 20.8728627,38.4062014 20.7708134,38.4042863 M19.1801861,40.3179418 C19.4005742,40.7550615 20.4153178,41.3133107 20.5830044,41.7250555 C20.5906701,41.7442064 20.6031268,41.7595271 20.6208537,41.7710177 C20.9988672,42.0113617 21.1200807,42.4676323 20.9231687,42.8262332 C20.8728627,42.9181576 20.7324851,42.8822497 20.7334433,42.7773984 C20.7348806,42.5408845 20.7037388,42.3125099 20.4982029,42.2904863 C20.2998536,42.2694203 20.054552,42.3445876 19.8149997,42.2761231 C19.5409519,42.1971256 19.3248757,41.9294915 19.2185145,41.6652088 C19.2017458,41.6240344 19.1624592,41.5981806 19.1174234,41.601532 C18.4279919,41.6503669 17.7419141,41.4746572 17.0529616,41.5809448 C17.0208616,41.5857325 16.9935527,41.605841 16.9787004,41.6340886 C16.6375779,42.2809108 16.1968017,43.1125394 15.337288,43.0522141 C15.2951268,43.0493414 15.2529656,43.0704074 15.236676,43.1096668 C15.1480417,43.3227208 15.1844536,43.5171026 15.2242193,43.7263264 C15.2381133,43.8000574 15.1686432,43.8627766 15.0962984,43.8421894 C14.9597536,43.80293 14.8390192,43.718666 14.769549,43.6138147 C14.6708535,43.4658739 14.6651042,43.3691617 14.673249,43.2245723 C14.7125356,42.5475874 15.2165536,42.1382365 15.6884717,41.6987229 C15.7378195,41.6527607 15.7287165,41.5689755 15.6683493,41.5373765 C15.3986134,41.3961384 15.2218238,41.4923718 14.8677655,41.4473671 C14.7379281,41.4310889 14.5462863,41.5033836 14.4015967,41.4727421 C14.3560817,41.4631667 14.3081713,41.4775298 14.2870907,41.5187043 C14.1639608,41.757612 13.8932667,41.8796991 13.6316756,41.8093195 C13.4874651,41.7710177 13.4208695,41.888317 13.3892486,41.9505575 C13.3173829,42.0946682 13.3777501,42.2564934 13.4112874,42.4192762 C13.4285352,42.5054554 13.336068,42.5720048 13.2608486,42.5260426 C13.1698187,42.4709837 13.0826217,42.4422573 13.0179425,42.3192127 C12.9393694,42.1698355 12.8349246,41.8911897 12.7942007,41.7810719 C12.7836604,41.751388 12.7870141,41.7193102 12.8042619,41.6929777 C12.873253,41.5862113 13.0572291,41.3075654 13.1496963,41.2204288 C13.5248352,40.8661368 13.9651324,40.7478799 14.5074788,40.7478799 C15.3315387,40.7478799 16.2140494,40.6521253 17.0419422,40.6071206 C17.1799243,40.6071206 17.9321186,39.4753014 18.1798157,39.0424907 C18.8611024,37.9824874 19.4058444,37.0579768 19.8653057,35.893601 C19.9774162,35.6092099 20.0502401,35.1864534 20.0195774,34.776145 C20.0152655,34.7220436 20.0535938,34.6722512 20.1077327,34.6669847 C20.5082641,34.630598 20.5710268,35.1792718 20.8393254,35.3123707 C21.0913344,35.4368516 21.483242,35.210392 21.8028048,35.292741 C21.8799406,35.3128494 21.9024585,35.4119554 21.8425705,35.4650992 C20.663494,36.5073879 19.4724399,37.8675819 19.1361085,39.3086884 C19.0623264,39.6222847 18.9971682,39.9555107 19.1801861,40.3179418" id="Fill-17" fill="#CD1422"></path>
                <path d="M58.6742923,56.1257394 C58.6267639,56.1257394 58.588647,56.0880557 58.5844117,56.0403549 C58.4140621,54.1580805 56.9943252,53.141576 54.4786096,53.141576 C52.409003,53.141576 51.0918523,54.0579088 51.0918523,55.4975196 C51.0918523,56.8846594 51.9252478,57.4346499 54.8014269,57.9841633 L57.865367,58.5603892 C61.4940019,59.2410799 63.0530303,60.811868 63.0530303,63.8222667 C63.0530303,67.6965274 60.0695592,70 55.0164815,70 C50.0594019,70 47.1898109,67.8129174 46.9055812,63.7960313 C46.9013459,63.7402213 46.946051,63.6910895 47.0006381,63.6910895 L50.7393886,63.6910895 C50.7869171,63.6910895 50.8255046,63.7292501 50.8297398,63.777428 C51.0010305,65.7651212 52.5280595,66.858901 55.2315361,66.858901 C57.6771354,66.858901 59.1825177,65.8900973 59.1825177,64.2935508 C59.1825177,62.7489983 58.1881842,62.0158367 55.4997661,61.5183171 L52.7581727,60.9950391 C48.7803681,60.2618775 47.2481627,58.8222667 47.2481627,55.8638619 C47.2481627,52.1465369 49.9629332,50 54.6668413,50 C57.4889037,50 59.666273,50.7593971 60.9834237,52.1727724 C61.9330522,53.200248 62.3391619,54.3283724 62.3537499,56.0269987 C62.3542204,56.0799466 62.3113977,56.1257394 62.2591635,56.1257394 L58.6742923,56.1257394 Z" id="Fill-19" fill="#362F28"></path>
                <path d="M71.8287037,59.0743735 C74.0377579,59.0743735 75.0591434,58.1509774 75.0591434,56.1989152 C75.0591434,54.2204153 74.0377579,53.2970192 71.8287037,53.2970192 L68.0592934,53.2970192 C68.0061214,53.2970192 67.9631005,53.3398002 67.9631005,53.3926755 L67.9631005,58.9791979 C67.9631005,59.0320732 68.0061214,59.0743735 68.0592934,59.0743735 L71.8287037,59.0743735 Z M67.8673909,69.2307692 L63.9176793,69.2307692 C63.8645073,69.2307692 63.8219697,69.1879883 63.8219697,69.1355936 L63.8219697,50.0951757 C63.8219697,50.0423003 63.8645073,50 63.9176793,50 L72.7123254,50 C76.9090451,50 79.2007576,52.1102076 79.2007576,55.9614567 C79.2007576,59.8655812 76.8263868,62.3718734 73.1265835,62.3718734 L68.0592934,62.3718734 C68.0061214,62.3718734 67.9631005,62.4146544 67.9631005,62.4675297 L67.9631005,69.1355936 C67.9631005,69.1879883 67.9205629,69.2307692 67.8673909,69.2307692 L67.8673909,69.2307692 Z" id="Fill-21" fill="#362F28"></path>
                <path d="M94.0039083,69.1591471 L90.8393106,56.4714636 C90.8153506,56.3758073 90.6819264,56.376288 90.6584362,56.4719443 L87.5722957,69.1586665 C87.56196,69.2009668 87.5243757,69.2307692 87.4816236,69.2307692 L83.4770169,69.2307692 C83.4347345,69.2307692 83.3980898,69.2019281 83.3872844,69.1601085 L78.4350836,50.1201713 C78.4191103,50.059605 78.4637416,50 78.5252859,50 L82.5970745,50 C82.6402965,50 82.6778808,50.0302832 82.6877467,50.0730641 L85.6122747,62.667014 C85.6352951,62.7645931 85.7710683,62.7645931 85.7936189,62.667014 L88.7181469,50.0730641 C88.7280128,50.0302832 88.7655971,50 88.808819,50 L92.6339607,50 C92.6767129,50 92.7138274,50.0298025 92.7246329,50.0725835 L95.7792965,62.6948938 C95.8027867,62.7924729 95.93856,62.7915115 95.9606407,62.6934517 L98.7818119,50.0740255 C98.791208,50.0307638 98.8292621,50 98.8724841,50 L102.944273,50 C103.005347,50 103.049979,50.0591243 103.034945,50.1196906 L98.1889197,69.1596278 C98.1781142,69.2014474 98.1409997,69.2307692 98.0987174,69.2307692 L94.0941106,69.2307692 C94.0518283,69.2307692 94.014244,69.2014474 94.0039083,69.1591471" id="Fill-23" fill="#362F28"></path>
                <path d="M47.2025778,32.2244178 C47.2025778,30.7762879 47.7097277,29.6590634 48.7240275,28.8722653 C49.7383273,28.0854673 51.2778895,27.6923077 53.3432037,27.6923077 C55.4447428,27.6923077 57.0073128,28.1170733 58.0309136,28.9661256 C59.0261219,29.7921918 59.5543215,30.8083728 59.6164914,32.0146688 C59.6194285,32.069261 59.573413,32.1171489 59.5166279,32.1171489 L55.983712,32.1171489 C55.9323117,32.1171489 55.8921704,32.0759653 55.8897228,32.025683 C55.8314691,30.8356689 54.9738179,30.2399435 53.3157902,30.2399435 C51.8354607,30.2399435 51.095296,30.6781178 51.095296,31.5539873 C51.095296,31.9471469 51.3097088,32.2737423 51.7395134,32.5328158 C52.1688286,32.7923682 52.6666775,32.9843986 53.2335497,33.109386 C53.7999323,33.2343734 54.5038721,33.3909668 55.3443898,33.5786874 C56.1849076,33.7664079 56.8609443,33.9589172 57.3729894,34.1552576 C58.2678447,34.4952616 58.9262584,34.9243371 59.346762,35.4424841 C59.7667761,35.96111 59.9772727,36.6937947 59.9772727,37.6414961 C59.9772727,38.4460127 59.8034907,39.156669 59.4564161,39.7734651 C59.1088519,40.3902611 58.6384166,40.8777599 58.0446204,41.2350035 C57.4503347,41.5927261 56.7924105,41.8608983 56.0708478,42.0395201 C55.3487955,42.2181419 54.5768116,42.3076923 53.7544063,42.3076923 C51.5064986,42.3076923 49.8156726,41.8786168 48.6829073,41.0204658 C47.5751078,40.1819488 46.9827802,39.0187519 46.905435,37.5303962 C46.9024978,37.4753251 46.9490028,37.4269584 47.0052984,37.4269584 L50.4824083,37.4269584 C50.5338086,37.4269584 50.5744393,37.4681419 50.5759079,37.5184242 C50.5974471,38.1572487 50.8431896,38.6849733 51.3146041,39.1030346 C51.8080472,39.5412088 52.603039,39.7600565 53.6995793,39.7600565 C54.4485555,39.7600565 55.0379459,39.5948432 55.4677506,39.2639379 C55.8970657,38.9335114 56.111968,38.4819286 56.111968,37.9096683 C56.111968,37.7128491 56.057141,37.539016 55.947487,37.3867325 C55.837833,37.2349279 55.6772681,37.0965319 55.4677506,36.9710656 C55.257254,36.8460782 55.0379459,36.7340206 54.8098264,36.6358504 C54.5812173,36.5376802 54.2889697,36.43951 53.9325941,36.340861 C53.5762185,36.2426908 53.2653689,36.166549 53.0005348,36.1129146 C52.7352112,36.0592802 52.4018434,35.9879272 51.9999418,35.8983769 C51.5980402,35.8093054 51.2871906,35.7374735 51.0678825,35.6838391 C50.2635897,35.4870199 49.5919588,35.2590735 49.0529896,35 C48.5135309,34.7409265 48.0700195,34.3745841 47.7234345,33.900494 C47.3758703,33.4268828 47.2025778,32.8680311 47.2025778,32.2244178" id="Fill-25" fill="#362F28"></path>
                <path d="M66.9378846,30.5617502 C66.2953666,30.5617502 65.7331634,30.7006251 65.2512748,30.9774171 C64.7693863,31.254688 64.4122725,31.6124105 64.1804115,32.0501059 C63.9633704,32.4595473 63.8323809,32.9106513 63.7874429,33.4053332 C63.7821841,33.4618409 63.8280783,33.5116443 63.8840118,33.5116443 L69.9028376,33.5116443 C69.9621175,33.5116443 70.0084898,33.4560944 69.9984504,33.3976711 C69.8622022,32.5907602 69.547158,31.9227241 69.0528398,31.393084 C68.5350965,30.8394999 67.8299521,30.5617502 66.9378846,30.5617502 M73.6804994,35.9520113 L63.9088711,35.9520113 C63.8529376,35.9520113 63.8079996,36.0022936 63.8118241,36.0578435 C63.9648046,38.3119266 65.0868208,39.4382498 67.1788289,39.4382498 C67.9284333,39.4382498 68.5886397,39.2505293 69.1599261,38.8750882 C69.703963,38.5173657 70.0457787,38.1270793 70.1848954,37.7047081 C70.197325,37.6663978 70.2303115,37.6414961 70.2699908,37.6414961 L73.4185203,37.6414961 C73.483059,37.6414961 73.5303873,37.7075814 73.5107867,37.7698357 C72.5436632,40.7953927 70.3708623,42.3076923 66.9914278,42.3076923 C64.9744758,42.3076923 63.3012518,41.6506704 61.9717558,40.3366267 C60.6417817,39.0225829 59.9772727,37.3110697 59.9772727,35.2011291 C59.9772727,32.9484827 60.6637726,31.1340105 62.0386847,29.7572336 C63.4126407,28.3809356 65.1174169,27.6923077 67.1520573,27.6923077 C69.061445,27.6923077 70.6500517,28.4211614 71.9173993,29.8779111 C73.1842689,31.3351396 73.8181818,33.1275834 73.8181818,35.2547636 C73.8181818,35.4448785 73.8038399,35.6493598 73.7761122,35.8672497 C73.7698974,35.9151376 73.7283058,35.9520113 73.6804994,35.9520113" id="Fill-27" fill="#362F28"></path>
                <path d="M74.6826683,27.9274311 L78.3559245,27.9274311 C78.4085236,27.9274311 78.4514716,27.9689509 78.4514716,28.0202675 L78.4514716,30.0230147 C78.4514716,30.1186502 78.585141,30.1527058 78.6305018,30.0678001 C78.8712999,29.6166805 79.1627668,29.2252747 79.5053853,28.8940493 C79.9377602,28.4760522 80.4106702,28.1714182 80.9241154,27.9796807 C81.4375605,27.7879432 81.9915408,27.6923077 82.5860562,27.6923077 C82.7481968,27.6923077 82.9011687,27.7011715 83.0454545,27.7184325 L83.0454545,31.0339519 C83.0454545,31.0904002 82.9914077,31.1323865 82.9339829,31.1239892 C82.529114,31.0656749 82.1700885,31.0362845 81.8564237,31.0362845 C79.5864556,31.0362845 78.4514716,32.090141 78.4514716,34.1973875 L78.4514716,41.4460916 C78.4514716,41.4969417 78.4085236,41.5384615 78.3559245,41.5384615 L74.6826683,41.5384615 C74.6300692,41.5384615 74.5871212,41.4969417 74.5871212,41.4460916 L74.5871212,28.0202675 C74.5871212,27.9689509 74.6300692,27.9274311 74.6826683,27.9274311" id="Fill-29" fill="#362F28"></path>
                <path d="M92.1581533,42.3076923 L87.8510579,42.3076923 C87.8118941,42.3076923 87.7769263,42.2825399 87.7638717,42.244574 L83.0506841,28.5868258 C83.0297035,28.5256059 83.0744622,28.4615385 83.1383367,28.4615385 L86.8822179,28.4615385 C86.9227805,28.4615385 86.9582145,28.4881146 86.9708029,28.5275042 L89.991551,38.2391745 C90.0190589,38.3279197 90.1426117,38.326496 90.1682547,38.2372762 L92.9614792,28.5294025 C92.9731351,28.4890637 93.0095016,28.4615385 93.0505304,28.4615385 L96.7939455,28.4615385 C96.8573537,28.4615385 96.9021124,28.5251313 96.8811318,28.5863513 L92.2453395,42.2440995 C92.2327511,42.2820653 92.1973171,42.3076923 92.1581533,42.3076923" id="Fill-31" fill="#362F28"></path>
                <path d="M101.5,27.8681577 L101.5,41.4450523 C101.5,41.4964745 101.45727,41.5384615 101.404939,41.5384615 L97.7503642,41.5384615 C97.6980326,41.5384615 97.655303,41.4964745 97.655303,41.4450523 L97.655303,27.8681577 C97.655303,27.8162637 97.6980326,27.7742767 97.7503642,27.7742767 L101.404939,27.7742767 C101.45727,27.7742767 101.5,27.8162637 101.5,27.8681577 M101.5,23.1703323 L101.5,26.2061333 C101.5,26.2580274 101.45727,26.3000143 101.404939,26.3000143 L97.7503642,26.3000143 C97.6980326,26.3000143 97.655303,26.2580274 97.655303,26.2061333 L97.655303,23.1703323 C97.655303,23.1189101 97.6980326,23.0769231 97.7503642,23.0769231 L101.404939,23.0769231 C101.45727,23.0769231 101.5,23.1189101 101.5,23.1703323" id="Fill-33" fill="#362F28"></path>
                <path d="M115.245095,33.0557516 L111.841498,33.0557516 C111.7992,33.0557516 111.762541,33.0246245 111.752202,32.982962 C111.525201,32.0745287 111.215484,31.4328309 110.822581,31.0578687 C110.418398,30.6738078 109.839852,30.4812985 109.085534,30.4812985 C107.962281,30.4812985 107.181643,30.8835568 106.743152,31.6880734 C106.251552,32.5821403 106.006223,33.7261821 106.006223,35.1206775 C106.006223,36.4974544 106.277871,37.5840306 106.822108,38.3789697 C107.365876,39.1748664 108.120194,39.5723359 109.085534,39.5723359 C109.804603,39.5723359 110.37046,39.3759956 110.783102,38.9823571 C111.184465,38.5997328 111.506872,37.9700071 111.750792,37.0950953 C111.762071,37.0543906 111.79826,37.0247001 111.839148,37.0247001 L115.242275,37.0247001 C115.299143,37.0247001 115.344261,37.0768979 115.337681,37.1343633 C115.160029,38.6749168 114.488427,39.9166499 113.322876,40.8595625 C112.129596,41.8249824 110.708375,42.3076923 109.059215,42.3076923 C107.690632,42.3076923 106.497352,42.0261115 105.479845,41.4629499 C104.461867,40.8997883 103.672301,40.0732433 103.111144,38.9823571 C102.549518,37.8924287 102.268939,36.6052021 102.268939,35.1206775 C102.268939,32.8143966 102.891193,31.0004033 104.137581,29.6767819 C105.383029,28.3541184 107.041119,27.6923077 109.111852,27.6923077 C110.8489,27.6923077 112.291739,28.1750176 113.441311,29.1404375 C114.565034,30.0847868 115.198567,31.3542948 115.340501,32.9484827 C115.345671,33.0049904 115.301023,33.0557516 115.245095,33.0557516" id="Fill-35" fill="#362F28"></path>
                <path d="M123.07046,30.5617502 C122.427942,30.5617502 121.865739,30.7006251 121.383851,30.9774171 C120.901962,31.254688 120.544848,31.6124105 120.312987,32.0501059 C120.095946,32.4595473 119.964957,32.9106513 119.920019,33.4053332 C119.91476,33.4618409 119.960654,33.5116443 120.016588,33.5116443 L126.035413,33.5116443 C126.094693,33.5116443 126.141066,33.4560944 126.131026,33.3976711 C125.994778,32.5907602 125.679734,31.9227241 125.185416,31.393084 C124.667672,30.8394999 123.962528,30.5617502 123.07046,30.5617502 M129.813075,35.9520113 L120.041447,35.9520113 C119.985513,35.9520113 119.940575,36.0022936 119.9444,36.0578435 C120.09738,38.3119266 121.219397,39.4382498 123.311405,39.4382498 C124.061009,39.4382498 124.721215,39.2505293 125.292502,38.8750882 C125.836539,38.5173657 126.178355,38.1270793 126.317471,37.7047081 C126.329901,37.6663978 126.362887,37.6414961 126.402567,37.6414961 L129.551096,37.6414961 C129.615635,37.6414961 129.662963,37.7075814 129.643362,37.7698357 C128.676239,40.7953927 126.503438,42.3076923 123.124004,42.3076923 C121.107052,42.3076923 119.433828,41.6506704 118.104332,40.3366267 C116.774357,39.0225829 116.109848,37.3110697 116.109848,35.2011291 C116.109848,32.9484827 116.796348,31.1340105 118.17126,29.7572336 C119.545216,28.3809356 121.249993,27.6923077 123.284633,27.6923077 C125.194021,27.6923077 126.782627,28.4211614 128.049975,29.8779111 C129.316845,31.3351396 129.950758,33.1275834 129.950758,35.2547636 C129.950758,35.4448785 129.936416,35.6493598 129.908688,35.8672497 C129.902473,35.9151376 129.86136,35.9520113 129.813075,35.9520113" id="Fill-37" fill="#362F28"></path>
                <path d="M143.791667,30.5742297 C143.177528,30.5742297 142.629173,30.758438 142.147072,31.1263736 C141.664501,31.4947902 141.291883,32.0195193 141.028748,32.7020039 C140.765612,33.3844884 140.634045,34.1655701 140.634045,35.0452489 C140.634045,36.3741458 140.927722,37.4514998 141.515548,38.2773109 C142.102903,39.103122 142.861766,39.516268 143.791667,39.516268 C144.721568,39.516268 145.484659,39.103122 146.080943,38.2773109 C146.677226,37.4514998 146.975602,36.3919414 146.975602,35.0991166 C146.975602,34.2016422 146.844034,33.4114223 146.580899,32.7289377 C146.317764,32.0469342 145.945146,31.5169145 145.462575,31.1398406 C144.980004,30.7627666 144.423191,30.5742297 143.791667,30.5742297 M140.634045,28.0304237 L140.634045,29.4944709 C140.634045,29.5897013 140.751986,29.6224067 140.804143,29.543529 C141.623621,28.3098624 142.909224,27.6923077 144.660013,27.6923077 C145.536817,27.6923077 146.387777,27.8856543 147.212424,28.2713855 C148.03707,28.6575977 148.685981,29.1828077 149.159624,29.8470157 C150.194309,31.2653715 150.712121,32.9982762 150.712121,35.0452489 C150.712121,37.1821613 150.137453,38.9371903 148.988586,40.3108166 C147.839249,41.684443 146.396705,42.3712562 144.660013,42.3712562 C142.908754,42.3712562 141.623621,41.7618778 140.804143,40.5431211 C140.751046,40.4647244 140.634045,40.4979107 140.634045,40.5926601 L140.634045,46.8278465 C140.634045,46.8802713 140.592225,46.9230769 140.541008,46.9230769 L136.964249,46.9230769 C136.913032,46.9230769 136.871212,46.8802713 136.871212,46.8278465 L136.871212,28.0304237 C136.871212,27.9775179 136.913032,27.9347123 136.964249,27.9347123 L140.541008,27.9347123 C140.592225,27.9347123 140.634045,27.9775179 140.634045,28.0304237" id="Fill-39" fill="#362F28"></path>
                <path d="M164.45928,41.8986797 L160.855114,41.8986797 C160.803504,41.8986797 160.761364,41.8553438 160.761364,41.8022696 L160.761364,40.3692646 C160.761364,40.275776 160.64678,40.2402309 160.59233,40.3152165 C160.101799,40.9891135 159.544034,41.4809025 158.918561,41.7896096 C158.22017,42.1348358 157.37642,42.3076923 156.386364,42.3076923 C154.830966,42.3076923 153.624053,41.8942974 152.767045,41.0670207 C151.909564,40.2402309 151.481061,39.0540942 151.481061,37.5086108 L151.481061,27.7892047 C151.481061,27.7356436 151.523201,27.6923077 151.574811,27.6923077 L155.178977,27.6923077 C155.230587,27.6923077 155.272727,27.7356436 155.272727,27.7892047 L155.272727,36.7451206 C155.272727,38.4722251 156.085701,39.3355339 157.712121,39.3355339 C158.631155,39.3355339 159.369318,39.0764925 159.926136,38.5584099 C160.482955,38.0403272 160.761364,37.3542572 160.761364,36.499713 L160.761364,27.7892047 C160.761364,27.7356436 160.803504,27.6923077 160.855114,27.6923077 L164.45928,27.6923077 C164.51089,27.6923077 164.55303,27.7356436 164.55303,27.7892047 L164.55303,41.8022696 C164.55303,41.8553438 164.51089,41.8986797 164.45928,41.8986797" id="Fill-41" fill="#362F28"></path>
                <path d="M172.242424,30.753403 C171.628286,30.753403 171.079931,30.933821 170.59783,31.2941859 C170.115258,31.6550219 169.74264,32.1647146 169.479505,32.824206 C169.21637,33.4836974 169.084802,34.2270384 169.084802,35.0532869 C169.084802,36.3901702 169.374251,37.4627858 169.953148,38.2716049 C170.532046,39.0808951 171.295138,39.4850691 172.242424,39.4850691 C173.172325,39.4850691 173.935417,39.0761844 174.5317,38.2584151 C175.127983,37.4406458 175.42636,36.3986494 175.42636,35.1324259 C175.42636,33.848773 175.127983,32.7978263 174.5317,31.980057 C173.935417,31.1622876 173.172325,30.753403 172.242424,30.753403 M165.415007,23.0769231 L168.991765,23.0769231 C169.042983,23.0769231 169.084802,23.1188479 169.084802,23.1706651 L169.084802,29.4669237 C169.084802,29.5568971 169.196165,29.5912849 169.251611,29.519683 C170.083776,28.4432988 171.361861,27.9044001 173.084457,27.9044001 C173.979116,27.9044001 174.834306,28.1022475 175.650024,28.4979424 C176.465743,28.8936372 177.118883,29.425941 177.610381,30.0939116 C178.645066,31.5363135 179.162879,33.206711 179.162879,35.1060462 C179.162879,37.1288006 178.570825,38.834528 177.386716,40.2236995 C176.202608,41.6133421 174.768522,42.3076923 173.084457,42.3076923 C171.333668,42.3076923 170.056523,41.7800992 169.252081,40.7249129 C169.197105,40.65284 169.084802,40.6867567 169.084802,40.7776723 L169.084802,41.8187265 C169.084802,41.8700727 169.042983,41.9119975 168.991765,41.9119975 L165.415007,41.9119975 C165.363789,41.9119975 165.32197,41.8700727 165.32197,41.8187265 L165.32197,23.1706651 C165.32197,23.1188479 165.363789,23.0769231 165.415007,23.0769231" id="Fill-43" fill="#362F28"></path>
                <path d="M183.776515,23.1726344 L183.776515,42.2124619 C183.776515,42.2648867 183.733786,42.3076923 183.681454,42.3076923 L180.026879,42.3076923 C179.974548,42.3076923 179.931818,42.2648867 179.931818,42.2124619 L179.931818,23.1726344 C179.931818,23.1197287 179.974548,23.0769231 180.026879,23.0769231 L183.681454,23.0769231 C183.733786,23.0769231 183.776515,23.1197287 183.776515,23.1726344" id="Fill-45" fill="#362F28"></path>
                <path d="M189.159091,28.3708676 L189.159091,42.2124619 C189.159091,42.2648867 189.116361,42.3076923 189.06403,42.3076923 L185.409455,42.3076923 C185.357123,42.3076923 185.314394,42.2648867 185.314394,42.2124619 L185.314394,28.3708676 C185.314394,28.3179618 185.357123,28.2751562 185.409455,28.2751562 L189.06403,28.2751562 C189.116361,28.2751562 189.159091,28.3179618 189.159091,28.3708676 M189.159091,23.1726344 L189.159091,26.2676224 C189.159091,26.3200472 189.116361,26.3628528 189.06403,26.3628528 L185.409455,26.3628528 C185.357123,26.3628528 185.314394,26.3200472 185.314394,26.2676224 L185.314394,23.1726344 C185.314394,23.1197287 185.357123,23.0769231 185.409455,23.0769231 L189.06403,23.0769231 C189.116361,23.0769231 189.159091,23.1197287 189.159091,23.1726344" id="Fill-47" fill="#362F28"></path>
                <path d="M202.90419,33.0557516 L199.500122,33.0557516 C199.458293,33.0557516 199.421165,33.0246245 199.410825,32.982962 C199.184295,32.0745287 198.874578,31.4328309 198.481204,31.0578687 C198.077491,30.6738078 197.498475,30.4812985 196.744626,30.4812985 C195.621373,30.4812985 194.840266,30.8835568 194.401774,31.6880734 C193.910644,32.5821403 193.664845,33.7261821 193.664845,35.1206775 C193.664845,36.4974544 193.936963,37.5840306 194.480731,38.3789697 C195.024498,39.1748664 195.779287,39.5723359 196.744626,39.5723359 C197.463696,39.5723359 198.029553,39.3759956 198.441726,38.9823571 C198.843559,38.5997328 199.165965,37.9700071 199.409415,37.0950953 C199.420695,37.0543906 199.457353,37.0247001 199.498242,37.0247001 L202.90137,37.0247001 C202.957768,37.0247001 203.002886,37.0768979 202.996776,37.1343633 C202.819123,38.6749168 202.147051,39.9166499 200.9815,40.8595625 C199.78822,41.8249824 198.366999,42.3076923 196.717837,42.3076923 C195.349254,42.3076923 194.155974,42.0261115 193.138937,41.4629499 C192.120959,40.8997883 191.331392,40.0732433 190.770235,38.9823571 C190.208139,37.8924287 189.92803,36.6052021 189.92803,35.1206775 C189.92803,32.8143966 190.550284,31.0004033 191.796202,29.6767819 C193.042121,28.3541184 194.700212,27.6923077 196.770475,27.6923077 C198.507993,27.6923077 199.950833,28.1750176 201.100405,29.1404375 C202.224128,30.0847868 202.857192,31.3542948 202.999596,32.9484827 C203.004766,33.0049904 202.959647,33.0557516 202.90419,33.0557516" id="Fill-49" fill="#362F28"></path>
            </g>
        </g>
    </g>
</svg>